<mxfile host="app.diagrams.net" modified="2021-04-24T16:33:46.530Z" agent="5.0 (Macintosh)" etag="SAC-iI91Q0GIew_2wIfb" version="14.6.6" type="github">
  <diagram id="n88zaUDO9fPLT97yZMYg" name="Page-1">
    <mxGraphModel dx="1554" dy="794" grid="1" gridSize="10" guides="1" tooltips="1" connect="1" arrows="1" fold="1" page="1" pageScale="1" pageWidth="1100" pageHeight="850" math="0" shadow="0">
      <root>
        <mxCell id="0" />
        <mxCell id="1" parent="0" />
        <mxCell id="3g_RbRhQAXuC4bDT2nws-1" value="" style="outlineConnect=0;dashed=0;verticalLabelPosition=bottom;verticalAlign=top;align=center;html=1;shape=mxgraph.aws3.mysql_db_instance;fillColor=#2E73B8;gradientColor=none;" vertex="1" parent="1">
          <mxGeometry x="280" y="640" width="60" height="64.5" as="geometry" />
        </mxCell>
        <mxCell id="3g_RbRhQAXuC4bDT2nws-2" value="" style="verticalLabelPosition=bottom;html=1;verticalAlign=top;align=center;strokeColor=none;fillColor=#00BEF2;shape=mxgraph.azure.sql_database;" vertex="1" parent="1">
          <mxGeometry x="150" y="640" width="60" height="64.5" as="geometry" />
        </mxCell>
        <mxCell id="3g_RbRhQAXuC4bDT2nws-3" value="SQLite3" style="text;html=1;strokeColor=none;fillColor=none;align=center;verticalAlign=middle;whiteSpace=wrap;rounded=0;" vertex="1" parent="1">
          <mxGeometry x="160" y="712.75" width="40" height="20" as="geometry" />
        </mxCell>
        <mxCell id="3g_RbRhQAXuC4bDT2nws-4" value="Adapters" style="text;html=1;strokeColor=#82b366;fillColor=#d5e8d4;align=center;verticalAlign=middle;whiteSpace=wrap;rounded=0;fontSize=16;textDirection=ltr;fontStyle=1" vertex="1" parent="1">
          <mxGeometry x="530" y="600" width="100" height="20" as="geometry" />
        </mxCell>
        <mxCell id="3g_RbRhQAXuC4bDT2nws-6" value="" style="shape=image;verticalLabelPosition=bottom;labelBackgroundColor=#ffffff;verticalAlign=top;aspect=fixed;imageAspect=0;image=data:image/png,iVBORw0KGgoAAAANSUhEUgAAAhAAAAFMCAYAAACapIWYAAAK2WlDQ1BJQ0MgUHJvZmlsZQAASImVlwdUk1kWx9/3pTdaINIJvSOdAAIJPRRBOohKSAIJJYaEoCJ2BkdwLIiIgDqioyIKjo6AjAWxYBsU7HWCiIK6DhZsqNkvsISZ2bO7Z+85L+93bt67795Xzvl/AFDCOWJxHqwBQL6oUBIXFkhPSU2j4wYBCpAAHmABncOVilmxsVEAscn+r/b+FoCU/XVHZax///+/mhaPL+UCAKUjnMmTcvMR7kTac65YUggA6gDiN19QKFbyNYS1JUiCCD9RcvYEf1Ry5jijyeNjEuKCEKYDgCdzOJJsAMgOiJ9exM1G4pCVNTiLeEIRwiUI+3MFHB7CxxF2yM+fr+QhhG2Q8WIAKMjuAEbmn2Jm/yV+pio+h5Ot4om6xg0fLJSK8ziL/s+t+d+WnyebXMMKaWSBJDxOuR6yf3dy50eqWJQ5M2aShbyJnJQskIUnTjJXGpQ2yTxOcKRqbt7MqEnOEoayVXEK2QmTzJeGxE+yZH6caq0sSRBrkjmS8XWJCMtluYkqv4DPVsUvFiQkT3KRMGnmJEtz4yOnxgSp/BJZnCp/vigscGrdUFXt+dI/1Stkq+YWChLCVbVzpvLni1hTMaUpqtx4/OCQqTGJqvHiwkDVWuK8WNV4fl6Yyi8tilfNLUQu59TcWNUe5nAiYicZCEE04AAuXX2SACjkLyxUFhI0X7xIIswWFNJZyGvj09kirpMD3dXZ1QUA5duduA5vaeNvEqJdmvKtwQHA9FMoFMemfKHIebRsQ47lyZTP+hwAGsh9urCBK5MUTfjQyh8McnrqQBvoAWNgDmyAI3AFnsAXMEEIiAAxIAGkgrlIrgKQDyRgASgBK0AZqAAbwGZQC3aAXWAfOAgOgzZwHJwG58FlcA3cBPeBHAyCF2AEvAdjEAThIApEhfQgE8gSsodcIQbkD4VAUVAclAplQNmQCJJBJdAqqAKqhGqhnVAj9DN0DDoNXYR6obtQPzQMvYE+wyiYDGvDRrAVPB1mwCw4Ek6A58DZcAFcDJfC6+AauAE+ALfCp+HL8E1YDr+AR1EARULRUKYoRxQDFYSKQaWhslAS1FJUOaoa1YBqRnWgulHXUXLUS9QnNBZNRdPRjmhfdDg6Ec1FF6CXoteia9H70K3os+jr6H70CPobhoIxxNhjfDBsTAomG7MAU4apxuzBHMWcw9zEDGLeY7FYGtYa64UNx6Zic7CLsWux27At2E5sL3YAO4rD4fRw9jg/XAyOgyvEleG24g7gTuH6cIO4j3gS3gTvig/Fp+FF+JX4avx+/El8H/4ZfoygQbAk+BBiCDzCIsJ6wm5CB+EqYZAwRtQkWhP9iAnEHOIKYg2xmXiO+ID4lkQimZG8SbNIQtJyUg3pEOkCqZ/0iaxFtiMHkdPJMvI68l5yJ/ku+S2FQrGiMClplELKOkoj5QzlEeWjGlXNSY2txlNbplan1qrWp/ZKnaBuqc5Sn6terF6tfkT9qvpLDYKGlUaQBkdjqUadxjGN2xqjmlRNF80YzXzNtZr7NS9qDmnhtKy0QrR4WqVau7TOaA1QUVRzahCVS11F3U09Rx3Uxmpba7O1c7QrtA9q92iP6GjpuOsk6SzUqdM5oSOnoWhWNDYtj7aedph2i/Z5mtE01jT+tDXTmqf1Tfuga6DL1OXrluu26N7U/axH1wvRy9XbqNem91AfrW+nP0t/gf52/XP6Lw20DXwNuAblBocN7hnChnaGcYaLDXcZXjEcNTI2CjMSG201OmP00phmzDTOMa4yPmk8bEI18TcRmlSZnDJ5Ttehs+h59Br6WfqIqaFpuKnMdKdpj+mYmbVZotlKsxazh+ZEc4Z5lnmVeZf5iIWJRbRFiUWTxT1LgiXDUmC5xbLb8oOVtVWy1WqrNqsha11rtnWxdZP1AxuKTYBNgU2DzQ1brC3DNtd2m+01O9jOw05gV2d31R6297QX2m+z73XAOHg7iBwaHG47kh1ZjkWOTY79TjSnKKeVTm1Or6ZbTE+bvnF69/Rvzh7Oec67ne+7aLlEuKx06XB542rnynWtc73hRnELdVvm1u722t3ene++3f2OB9Uj2mO1R5fHV08vT4lns+ewl4VXhle9122GNiOWsZZxwRvjHei9zPu49ycfT59Cn8M+f/g6+ub67vcdmmE9gz9j94wBPzM/jt9OP7k/3T/D/0d/eYBpACegIeAx05zJY+5hPmPZsnJYB1ivAp0DJYFHAz8E+QQtCeoMRgWHBZcH94RohSSG1IY8CjULzQ5tCh0J8whbHNYZjgmPDN8YfpttxOayG9kjEV4RSyLORpIj4yNrIx9H2UVJojqi4eiI6E3RD2ZazhTNbIsBMeyYTTEPY61jC2J/nYWdFTurbtbTOJe4krjueGr8vPj98e8TAhPWJ9xPtEmUJXYlqSelJzUmfUgOTq5MlqdMT1mScjlVP1WY2p6GS0tK25M2Ojtk9ubZg+ke6WXpt+ZYz1k45+Jc/bl5c0/MU5/HmXckA5ORnLE/4wsnhtPAGc1kZ9ZnjnCDuFu4L3hMXhVvmO/Hr+Q/y/LLqswayvbL3pQ9LAgQVAteCoOEtcLXOeE5O3I+5Mbk7s1V5CXnteTj8zPyj4m0RLmis/ON5y+c3yu2F5eJ5QU+BZsLRiSRkj1SSDpH2l6ojYikKzIb2Xey/iL/orqijwuSFhxZqLlQtPDKIrtFaxY9Kw4t/mkxejF3cVeJacmKkv4lrCU7l0JLM5d2LTNfVrpscHnY8n0riCtyV/y20nll5cp3q5JXdZQalS4vHfgu7LumMrUySdnt1b6rd3yP/l74fc8atzVb13wr55VfqnCuqK74spa79tIPLj/U/KBYl7WuZ73n+u0bsBtEG25tDNi4r1KzsrhyYFP0ptYqelV51bvN8zZfrHav3rGFuEW2RV4TVdO+1WLrhq1fagW1N+sC61rqDevX1H/YxtvWt525vXmH0Y6KHZ9/FP54Z2fYztYGq4bqXdhdRbue7k7a3f0T46fGPfp7KvZ83SvaK98Xt+9so1dj437D/eub4CZZ0/CB9APXDgYfbG92bN7ZQmupOAQOyQ49/znj51uHIw93HWEcaf7F8pf6o9Sj5a1Q66LWkTZBm7w9tb33WMSxrg7fjqO/Ov2697jp8boTOifWnySeLD2pOFV8arRT3PnydPbpga55XffPpJy5cXbW2Z5zkecunA89f6ab1X3qgt+F4xd9Lh67xLjUdtnzcusVjytHf/P47WiPZ0/rVa+r7de8r3X0zug92RfQd/p68PXzN9g3Lt+cebP3VuKtO7fTb8vv8O4M3c27+/pe0b2x+8sfYB6UP9R4WP3I8FHD77a/t8g95Sf6g/uvPI5/fH+AO/DiifTJl8HSp5Sn1c9MnjUOuQ4dHw4dvvZ89vPBF+IXYy/L/qH5j/pXNq9++YP5x5WRlJHB15LXijdr3+q93fvO/V3XaOzoo/f578c+lH/U+7jvE+NT9+fkz8/GFnzBfan5avu141vktweKfIVCzJFwxqUACmlwVhYAb/Yi2jgVACqiy4mzJ7T1uEET3wPjBP4TT+jvcfMEoBnplLKI2QnAESYiZ5GmhrBSEiUwAezmpmr/MmmWm+tELDKiLDEfFYq3RgDgOgD4KlEoxrYpFF93I8neBaCzYELTKw2LaPlmg+S8MIfrfV1y8Deb0Pt/qvHvPVBm4A7+3v8TXswacbfBLcAAAACEZVhJZk1NACoAAAAIAAYBBgADAAAAAQACAAABEgADAAAAAQABAAABGgAFAAAAAQAAAFYBGwAFAAAAAQAAAF4BKAADAAAAAQACAACHaQAEAAAAAQAAAGYAAAAAAAAAkAAAAAEAAACQAAAAAQACoAIABAAAAAEAAAIQoAMABAAAAAEAAAFMAAAAAI0Hl/UAAAAJcEhZcwAAFiUAABYlAUlSJPAAAAJvaVRYdFhNTDpjb20uYWRvYmUueG1wAAAAAAA8eDp4bXBtZXRhIHhtbG5zOng9ImFkb2JlOm5zOm1ldGEvIiB4OnhtcHRrPSJYTVAgQ29yZSA2LjAuMCI+CiAgIDxyZGY6UkRGIHhtbG5zOnJkZj0iaHR0cDovL3d3dy53My5vcmcvMTk5OS8wMi8yMi1yZGYtc3ludGF4LW5zIyI+CiAgICAgIDxyZGY6RGVzY3JpcHRpb24gcmRmOmFib3V0PSIiCiAgICAgICAgICAgIHhtbG5zOnRpZmY9Imh0dHA6Ly9ucy5hZG9iZS5jb20vdGlmZi8xLjAvIj4KICAgICAgICAgPHRpZmY6UmVzb2x1dGlvblVuaXQ+MjwvdGlmZjpSZXNvbHV0aW9uVW5pdD4KICAgICAgICAgPHRpZmY6WFJlc29sdXRpb24+MTQ0PC90aWZmOlhSZXNvbHV0aW9uPgogICAgICAgICA8dGlmZjpZUmVzb2x1dGlvbj4xNDQ8L3RpZmY6WVJlc29sdXRpb24+CiAgICAgICAgIDx0aWZmOk9yaWVudGF0aW9uPjE8L3RpZmY6T3JpZW50YXRpb24+CiAgICAgICAgIDx0aWZmOkNvbXByZXNzaW9uPjE8L3RpZmY6Q29tcHJlc3Npb24+CiAgICAgICAgIDx0aWZmOlBob3RvbWV0cmljSW50ZXJwcmV0YXRpb24+MjwvdGlmZjpQaG90b21ldHJpY0ludGVycHJldGF0aW9uPgogICAgICA8L3JkZjpEZXNjcmlwdGlvbj4KICAgPC9yZGY6UkRGPgo8L3g6eG1wbWV0YT4KYLX8JAAAQABJREFUeAHtnQeAZFWV/k9VdffkgRlyGHIUMYMYCAJidte0uupiXFZd48qia/4bd91VARUVMS4qLrqYxUUJKiZMqCxLEIEBhgyTezpU/b/v3Htevaqunuma6Z7u6vnuUO/ee+655973q2HOqfvue6/SQLKcisLEBaE5I/Mx5zMjZ6lJiYAIiIAIzHYClZ47wbYZd6hWGECMcbRjBDzzjsIpQbL1RpqS6cuoCIiACIiACEwJgTY/PiVjNI12GK0k6mtx1i2VMNFRGI1blG/U8kYbt2hYdRYBERABERCB3iMA5z2eayz59Uk8rxitZL0k6vORQtAybEdhi0Y3lY7WOgq7sSpdERABERABEdhGCGzEZzZKPj5odBBFU5d5DFyyCFFfazgTSl3aLql3tNBRWOrUVXFSjXU1spRFQAREQAREYOoJlBz1RAfr4Bpd1MFUB9EERykPUkEA4aksnKCdklpL75ZKU6nDTovcOE6HZleVREAEREAERGAbItCtX+wcElQqkHcwVV6t6NxzIqgbVqnX6x3Mb7pzS6dcGT9ICHstvUI4bt6d9rhm1CACIiACIiACPU2ge0e/8R4eXJBISa1UnBCrvAIxIV1XKpx6W9DA4GFoeNiGhkZteGTERut128zYZOKTkaYIiIAIiIAIiMAmCVSrFatVq9bf12cDAzUb6O+3WKGIYCJWJiYaSEx4BWK8wGF0dNTWrR+ydYMbNnkCUhABERABERABEZgZBObPnWPz5w1YrVbzCUUgEasSmwokNhlAFIEDzaNSvkyxdv0GW7N2fUFizkC/8TMw0Gd9tapVEe0oiYAIiIAIiIAITC8BbFewkdE6rhKM2IahYf/EjBYumGcL5s2JalqZKEUPpWKhw8JGA4gieMiFCB646rBy9Tpcqhh1Yxx4wfy51teXopiWEVQRAREQAREQARGYUQRG4L/Xrhs0LgQw9cN/b7doflerER0DiPECBw4yPDxi969e6/sbBvr7bDEGZK4kAiIgAiIgAiLQWwSG4NNXYUGAOfdJbL9ogfWXfPrGLmuMCSA2Fjxw5eHelWs8eJg3d8CWbLewt0hptiIgAiIgAiIgAmMI3Affvn5wyIOIpfDtsS+CiuMFEcUmBQYOHjwUhfJ+hyTkZQveWaHgYQx7CURABERABESgZwlwQYC+nT6evj5FBB4VNPc+5vggwgQPIJJK1s+nn/Y7hJrhOsmQ73ng5QqtPPTs3xFNXAREQAREQAQ6EqBvp4/n/kb6/JRSHBB7IF2Wg4Zqp+Ch2SmVRrFzM+624J4HJREQAREQAREQgdlHIHw8fT59fzMV0UISoZouYbTLG81ObOJzHph4t4U2TDoKHURABERABERg1hGgj49bOun7y+FBoxQb8MSrLa0QlBXYkcsW8ZAo3qqpJAIiIAIiIAIiMHsJhK+n72cMMF4QUWyiTCiaal7CgQ+dYOIDovSch0RJRxEQAREQARGYrQTo6+nzmTwGQCzQjA4oTbVSAIEoI0ca3pS1ywEEuymJgAiIgAiIgAjMbgItAQRPFTEBwwL/IFZgKQcQrKSG1oLh0ZfpaZN8PLWSCIiACIiACIjA7CcQPj9iAD/jFCp4EME6AogkqXtEAUlWYCNXJPhWTSa+20JJBERABERABERg9hMIn88YgLFAkXKRMYNHBUVTUUiqrMYrufVirAKfCiIgAiIgAiIwqwmEz2cM0BYaFAsN4z4HInUY021WA9PJiYAIiIAIiIAItBPoHESkFQhEGOXEmt/O2Souq6gsAiIgAiIgAiKwLRBALMCYoD0kGPscCIdB7W2Bis5RBERABERABERgkwQ8JmhdiWjZGZliBgUPmwQpBREQAREQARHY1gi0BRFFANEpeEiybY2QzlcEREAEREAERCAItMQCpSCiCCD8mkXWigdKRWflIiACIiACIiAC2y4BhgfF7Zw5iEibKNs2POQ4Qvsgtt2/KzpzERABERABEUgEYnGhjQdu4xynxRWLUKKtm6oiIAIiIAIiIALbBoEOsQBEVV+SKLUVxfKTp7YNQjpLERABERABERCBTgRyTFDECNAp7YEoXbHooNjJnmQiIAIiIAIiIAKzm0ARNLTFBsVzIMZTmN1YdHYiIAIiIAIiIAKbItApRmhZgdiUAbWLgAiIgAiIgAiIAAnkuzAyjLblidhfKVQiIAIiIAIiIALbKIG8/NC+CtFcgWgPHrZRTjptERABERABERCBzgTKQUTzbZztutAqbvFsb1NdBERABERABERgmyDgsUAROTRPOa1AtK8+uGIH7WY/lURABERABERABLYZAr6q4Gcb0UHzEkYbhFBoE6sqAiIgAiIgAiKwjRHoFBPgNs4kLhpR0KWLbexvhk5XBERABERABDZBoHwpgzFD6wpEEUVkK+31TRhXswiIgAiIgAiIwCwj0B4L5LoHEOU2rT7Msi9epyMCIiACIiACk0SgHCO0rkCUB0BUUQ4syk0qi4AIiIAIiIAIbBsEPBboEBA0A4jxNLYNPjpLERABERABERCBCRFAwID/Wp4DUQQYqQ1mCsmETEpJBERABERABERgthHIFy5ySBCRQXMFYradr85HBERABERABERgygikAMLDiYgptO4wZbRlWAREQAREQAR6lEAzSuAJNJq3cRYN5UJR7tGz1bRFQAREQAREQAS2jIDHAjkgKGUbvYSh+GHLmKu3CIiACIiACPQ6gfFigTEBRFIcT73XMWj+IiACIiACIiACm0eg/BQIPonSY4UcMJTjhnJ580ZSLxEQAREQAREQgdlAoBwT5LKvQJTls+E8dQ4iIAIiIAIiIAJTS2DMJYwYTkFFkFAuAiIgAiIgAts2gU4xQYcAopPatg1OZy8CIiACIiACIkACzRihJYBoioVJBERABERABERABMYSiFgBAUQuhoS65fLYvpKIgAiIgAiIgAhsawTKsQHKLe/CGMuirD22VRIREAEREAEREIHZTqBzLNByCSMQdFaNVuUiIAIiIAIiIALbGoH22KAtgGhrbqtua7B0viIgAiIgAiKwzRMYEwskQVsAsc1jEgAREAEREAEREIEJEBgbQJQijVJxAqakIgIiIAIiIAIiMNsItMQCpUoRQJRks+3cdT4iIAIiIAIiIAKTSIAxQxFATKJdmRIBERABERABEZjlBBRAzPIvWKcnAiIgAiIgAlNBQAHEVFCVTREQAREQARGY5QRSANFxA0RH4SzHodMTAREQAREQAREYS2BsTKAViLGUJBEBERABERABEdgEAQUQmwCkZhEQAREQAREQgbEExgQQYxcpxnaSRAREQAREQAREYNsjUI4RxgQQ2x4OnbEIiIAIiIAIiEC3BBRAdEtM+iIgAiIgAiIgAht5kFR5nUKgREAEREAEREAEtl0CHWICrUBsu38ddOYiIAIiIAIisNkESgFEh/Bis82qowiIgAiIgAiIwOwl0NjIJYzZe9Y6MxEQAREQAREQgS0kUFqBaLWk9YhWHqqJgAiIgAiIwLZKoFNMMG4Asa1C0nmLgAiIgAiIgAhsmoACiE0zkoYIiIAIiIAIiEAbAQUQbUBUFQEREAEREAER2DQBBRCbZiQNERABERABERCBNgJ9LfVOuyRaFFQRARGYyQTqjbpVK1X75NUX2FOq59uydffasNWsUjHDf50T/79HY/zv30mvkXXY5no40Gb0oeGWflnRu2E+te2q1uh7ilX2PAWdRqFcYxclERCBXiTg/2ObbuPsxe9OcxaBTgQa8PIVePX7h1bbWbf83j55++L8fzjkHgGgF//Hz16/KGbP71mpjXqhUwQgEFCPdU+shxLzkjyGNAQ19VV1sw0/NFtzZVKCTEkERKC3CegSRm9/f5q9CBQE6nD3Ffz57PWXWN/cEfv2msX26/WLrb9at1F69uzgmTGVfH0SUJaFzBo4eOAQHaiV2yligOD6WY/6RdBQ0mWR8ULFNlhjxRdQwD872Q7blERABHqTgAKI3vzeNGsRaCEQwcPP7r7GvnLXL626dsjWW93OWr2TjTaqcPQNBAT4sFc4egYArLoQTh5l/+DgwQF1WQ79aKccKYKH6Oe2UlNqj7I3YIZr6hjremvcexFa+E8PeyqJgAj0KgEFEL36zWneItBGoAqPfta1F9pwfdTq+MW/EOsOl22Yb99buz1WISBDJFCB06Y/9yAiPL4LUkDAYKIIDBg8xBjQYbnoEm3IIwChaqxARD83TV18GOQ0RvC5/ZNmo6uT5eiQajqKgAj0EAEFED30ZWmqItCJANcVsMZg59/0c7tqcIVVBkdsxK8ZVLB9ctTOWrWjrR4dsFoFLpzOHEYiEGDFZRSy7B4/t6PsepBncRo+6xWBQ6nRg49s303ykOscaHQYaw/zEMzc8bUs1V4IB6SDCPQgAQUQPfilacoiEAS4cZJp5fA6+/D138EvfGxYhKyB3/sj9YYtgJe/emTAzl21g9WwFwIXEfAH7QwC0I85nX6sOkRQEO2uxACBelmfQQbLPFAvFz3P1UIWAYULcKhwQ+VqzGL9N7Gh8vcQ4G4M3pWhJAIi0HMEFED03FemCYtAkwBv22RI8Lk/X2yD/ViJgC9mAMHLGYwKRuDtFyBw+PyaJbZ8aL71MYjgpQyPAFwlGaPn54fy3FbUqVHSb2lmBf0icCi3sZun3B5j+t0iuMZSX/GlrBC9clWZCIhATxBQANETX5MmKQJjCdAR16o1u2NwpV2w4gozXLpIz4HAFgOsPqTUsAG49zvqNfvEyp1wqQNyLDPwT+G2s4OPEXxVAY10+FxtYJ3W+PFUdMzyXA+9UPN6dELOKVG1gnWQ+nrkteussQq3dfKuDMiUREAEeouAAoje+r40WxEoCDAIYDrtd1+0lbxF0i9fjKbLEu6qEST4KoTZIixNfHv9IrtycJHf1slVCA8jaAJePVYH3GB29N7Ecg4QmFHmAUbWiajCA4NCIfVhP34YhPgYLf1hYAh7Mu46G9HOSrSwkdaVREAEeoWAAohe+aY0TxEoEYgnTv7y7uvsqqHbrTqIwMF/xdNbZwfunpsVw2ZKw22dZmeu2gl7I7jlsrkC4UEB2tx94+ABQwgp9wYUYMdjAdZRoNyDBFS9szeiyBxt0S+LqZWS98UqxCAutcy5zep3fgtyrUIEHuUi0CsEFED0yjeleYpAJpA2TlbsHjxx8v3XfMNGh0ZwyYK3aSZPHysTzfiBFw2wFwJ3YVwyON9+wNs6a6N4PgT3QqRAIpx8spDjATp6jBlBQgQEhd3czmlRFu205akkC7su59UKtPmzKfCEysrqH+AplbdBwA2VLZrJjo4iIAIzkoACiBn5tWhSIjA+AT5PgZskz/vL5ba8stIqw1x9wG947CXwDYq+ThArDAgn3Ccnx9yPgOETq3e0tSP90G/e1hlum8GCl3OOzBNlUY7cZTi4ftYr7uIo6UffiA1YZ5lzreO5EJW+1da45QxKMQhblURABHqBgAKIXviWNEcRyAS4ulBDoHD/8Fo7f8UvzdYOY3UhOV0PHhgBIDF8cKmvMiTnzx/+8xA0XDU8YF9as2O6IwN6fE8Ge7W77pZAgUaRks1U9iOV8KHfdxs4UMfLlLENdZexrSTzBsy+vgbj1/8PT6r8AzTxTxKfYaEkAiIw4wkogJjxX5EmKAJNAnTE3P9w9vU/tPtt0BpYfRilV/aUcgYZHj5Azj9M6apBBY+VYhAxap/FbZ23xG2dyZMXP/7p8MPpszfLTK2jtAkYHEAUfakfqxkuz51zfMPmtDKCWzMY+Pg87/iqy3UQARHoDQIKIHrje9IsRcD3OHD746/v/bOdd/cvrbKOqw/c3ZCcdwobmm6cd2Ak7w9ZduDMByBeMVqzs/GESt7W6fsXkgtvUoYe7XqKvqxQjgYX5ZzxCz9+9cEbmsO5PrsVxtxi0k9FHHEW6zj7P1njjv+CIf6zpIdLFXhUEIEZSkABxAz9YjQtEWgnwF/qTJ+6/iIs+SfHz42T6RJGXnXIbt9/09Ops+6XMejBoYOMqxGL8UCpb6xbZH/AbZ0DWJHwx1FRNQIAqiOlXqngopC77dROka8s5LZsgsMlOQ2FEDmLrk85EybkN5VuQMu9F+DBlGuhhH+aYjJJS0cREIEZRkABxAz7QjQdEehEYBSXLWrVql+6+M3gLVbn3gfIuHHSgwR3wdzPgN50vPzJH0sCKPolgqzD5hq89lqsP3wcqxB1OGtfiYBWOHbGAjTFRFn4csqZ0qpFKkcfr0GBOvy4DqfChtzRp8U6E9vw8QUHVBp4T0alH8HDbZ9PjR7qUFFJBERgJhJQADETvxXNSQQ6ELhvaI198S+X4pbHEbpb32uYViXcRaMHZAgaeOmCTp2BRXpgVConk/TY2AsBT74QKw+XDC6w/1m3PTZUprd1ZnefHHtpDoxFmqO4CY9PPFYp6VGJeh4YcA4+j7JCs0w9tlOXbw/lWopfyhj5H2usuxqNvK2T6yVKIiACM5GAAoiZ+K1oTiJQIuCrD/iZ/tUbf2Zr52LVYTRdtOAvdzpheFr84SUMeGMvIZCgV0aquudPZWq7jnt3V3Wn/Qm8aGstXrhFXWryQ8fORFU3FXXIWAxZOUDwvmhku/engAl59PGcIspQCRVfhfAKhHjQVf22c71rUyNXlYmACMwYAgogZsxXoYmIwFgC6TJFxa5audzOvfWneIvlqL+qexQ/2RvYB0GHTCcbpbDgGygh9YdL5WiAOvTRyemjjFWIBdWG/WF4jp23Zgfrwy2e/qItjw6Sk88DpH7smweInPb8g4PLkLPO5PKcs56n4XoRPLBP6HsD3sxZXz1ktdE/4W2duK1TqxBEpyQCM5KAAogZ+bVoUiKQCNC5ctXgw//7LVtbw8uyRnD5gpsOPQrIbjw2G7BLXhpw5005vXIOCDx8QENy2K7h5bm4lPH5NdvbbUNz07MhsqcvHD5M5JGKoMCHStZZLBS8TzLtfbgAUk55KmVRCiygx/Py9ipGQ7l+4/twM8aawnZLJ1VEQASmnYACiGn/CjQBEehMgKsPfGjUz+66xn695iY8NGrItxVW4WCTQw/vjDy8fZiiJ4b35hMrGWxQkx+qsTfLrHAVYg5ky0f77Bw8odI3U6KvX8xIJqjpyfuXyskI7aUPh3SdEEDOGIZjMrW0sZJlhR3qUsZXfWNDZXUhnnNx1/ch4bUa3dZJXkoiMJMIKICYSd+G5iICmQD3MNDRrx5eb6fibZt0rHxgFOUNBBbR7nsd4KHd8ULHN1DSRghYRmI1aWVHTiE9Php4C+ci3Nb59fWL7U+DC9PbOtmQOrka1QtHj6I34ZDjAG/mgfL2RB1+2OblXHEbKIfMc3bG3SYewuCGDFvz33gL2HUocDBtqCQeJRGYKQQUQMyUb0LzEIESAW6TZDBw3k2X2/p5KA8zaOBtm3S4OHiOzH/eJ9eb1xXcigcLaHNHzCODBaQUM7DMOzSS8+axD6sVq7Fc8HG8rZPLBtHTO+UDh0pWmjlEKbFQVFrboylPwRuLMhq9Pff1mbERH76evFJbb/VbvwAl/FOVdWJI5SIgAtNLQAHE9PLX6CLQkQAvPQyODtuXbv4Jbm0czpcC+MscyR0svWly5+7u6XPhYRkweHIPTQn+MCBgMEGZO2EcUKaM/wBQa6RescXYRPkj3NZ50bol1s+HS/H6Q7bnQ9Kwj9Pqy33EbNrLWY8ZU8hozT84MBhhijbm0e5TR8VXWlbh0sUINlOu+jU00mzZT0kERGD6CSiAmP7vQDMQgRYCDALo+N/8u3Pt/soGf+pknQ9KgNxjAHjfwgG7t6VDzgGCO31oUsd70HRy09SJlYU0Qgo33HHTYVMVKxFnrd7B1tX7sf8i35WBthiPRqnPRH2fT4dyoY+2YiMlx0hTcSPRFyqu4/ZYYUKFda7E4EYRq9/yHzgMlgy4lg4iIALTSEABxDTC19Ai0E4ALtud7JX332iXrr7GKhu4EkAZnL3fttl0sylESBbYTqfNj5ch5gZJd8SeMfhg39SrAq/O9hRCUE5nbTYfQcOVuBvjqwgiatgXkXYdpHaYScFDMssuebym3GXFgQUk6icTXvUy6mmuLnId2i8nD0Kg7Bsq5w9a/c7vQA//ZGlDZRmTyiIwbQQUQEwbeg0sAh0IwLHy8sUnrv0BHCxcat6oUMXGQve48Mbu+OFYU9DAOpugi48HCe6w0c6f/hTzgOQ6/rve44rUxj60yXb8YcDAt3V+ZvUSu314bnNDJeTU4Vg+HvVdQLupLY3S1IOKJ7fNRhTyNN2GN0anpJpnmircM+lD1Efxqm/sh1iLF235hkr+s5VCm9xNmQiIwDQQUAAxDdA1pAh0IkDnz3db/ODW39kVa280GxzBnRdwnHTQaKObp0Ol504BA90ovTLlkLExe3Nqh2+OQMN13QrbUmtqQze37Abwcq2G3dLot3NW4rZON8pBaTGZD5EvcORBirGomlOaq08vSbKSByClfq4XfSCPugcbIUe8UMHlHH9CZT7H3KRMBERgmggogJgm8BpWBNoJMChYOzJo77/mAhsdwa9urD7QmfrTJLNbzSEEPT7+izCAXjdWEeho+WFPFJiYoeoZxfTgFPC/XGfOlQ33zQhiFuPdGF8bXGJX422d/diEwFs9i1QyW9jMjRyWsvi43axPFdYL/8+xc0rzQFvuX2pyjQafULmWQdIfrbEWt3XyUoZWIQKfchGYFgIKIKYFuwYVgVYC3OfAdN5NP7PVfaNWHeFjqNPqA+Xp8gPvmoA39p/+lELuf6Kcckr949476bDFw43sodN6Qrpc4i0edSA8cU+Ot3XCg6/EDRBnD+5sNocvtcq2S8FAjkHSULmZQ1M1PhEQeDOEHIaJcp5GlF1esh3FsOMGuQekPmJ21zmIHdalzjqKgAhMGwEFENOGXgOLQCLAQIGXLv5w/8121vIf4hf2kA1zoyC8aLp0gdUFOt8CGN1qSu7w2ZB1fYXCdeFs4ZXpmKlTrFy4lWTJnba3oT/yFGDgRVaYTwPz2X5xvz1qn5MRZTzS+hf3YQz8c9Ec2gOAPLTL2RTNPgIqEST4bNOwrkN5rqa5l/qGEbcVBtHOeY2uwzz7r7X63RdCgvlgf4SSCIjA9BBQADE93DWqCBQEwkd+6rr/waI8VyLgJCmMhlxIQUAKDNjIoCK5YTp/FrNLRpbaKKSY8nSJI5miflijBsrRFx35+OwKVh327Vtif7PXI82WvRSXU/qt2tf6z0UejQbKQ6fVhSwr67gi5bnQMkfKi/PNp456CnJSh3QamOsqMLr/23g050ooMKgpdcy2lYmACEw9gdZ/EaZ+PI0gAiJQIsBf1XTYV913s/1i7Q24bRO/siFL/pyOvuT8WS58Jcp+fYCBRN7/QIeLPx4auCoE6T+3UursPte7YyBfqeCcsnk+eMrm9duL9n5cmunc3c3mHmeVudTJ/2RAhSmmwzyLikK0xRzKHagbwUHh/13YNJQYeK+0ksFzgXJjGJtN++61xvIzspF0+Sdp6igCIrC1CCiA2FqkNY4IdCSA912MrLf3XPPfNoI3bdZHsXkyO8qk7uFAcpzuaQs3XTjsCuQuxSFpM4xI3tgvISSDSZYVGTT4bZ4chJ7ex8TeBwQI9fl9dvz8A+3JezzMLxvwHRSVZa9GtpvV+OYtBhHw2TTr5tJEkxnaQd3luVyus8FPg0KkuJSRq6nNG7w5jcEhaQsff5Q3Lu+MrsE5D/3ObF1sqAwLqZ+OIiACU09AAcTUM9YIItCRAFca+MyHC27+lV1bv8eqQ3zyIxyje18e8ge+0UtswH/ugNHKlQcKmPleiBiFzja1uCQFC+XGbJB9/Y8r+1wqtSqeA9FvrzvwyXicdc1XJ3xwdt/h2b6h0oMTTiUNH4Z90DxFl6XzQJHzQ+bzZDX3o4wNfhosM7HuDV5s9kUT+3kb21moYa/GnV9lS7MTakoiIAJbh4ACiK3DWaOIwBgCvKOCt22eu/wnvnGSjtSdfb59s+iQ5VFPt2iiBjmTrzfAuybHixp+rvMXe2rJjjgrh/N3Zeiwzl/1TH6Hx4J+O377Q2yvBTv56oPrc7MijFeWPM7qQ3g2xBwGOemfDvflqbs7+Fz0zKeAEs0XnxBmxQgy0nyTImX+yf1ctdzP54tLPWuxMjLya2vc8wN04By1oTJjVSYCW4WAAoitglmDiEArgVG824LBwhdvuMzubKyxxtAIfDTWA+io3auWXXPqW/ah+cJG8cubbd7Nf+vTA5fHg80sSDbY2NThaza4EmLYJLmDzbNXHPiEdOmibMK7YEVi2ZusXhnwGyDYnC15lBIzZiDj88n905ipklZLUIaQfQs9VFr0ct8Qcnpsd51c4KWb+jBv6/wyLq/gPRkeRJSthBHlIiACU0FAAcRUUJVNEdgIAd84iUdT/wm3bX7q1ktwHX/YL+772yfhIv0yRnbNfmkCPjFdokjO0S9doMigIIINvxiRZRw6XZpIAUly1XwOJQOJ9KElOnAm+l23hY2Tr977JKw+7Oi6vLW0mejBR60y/wBrzH2UVRfi2RC4xAFFN0QHT3v+yeUYgzKWizoEXs+CljbqZYEHG+ycU6lYBEuNDRiz736zO/8bWtTQhsrgpVwEpppA+V+IqR5L9kVABECA/pHp7OsvMr7jgo6ab9v0ywLwmn4ZI2uxTOfsvhFtHgRwvd+FtBLWsh5FkHlAwGPosYsbyW4Y9RSUcDEBrwkfqNquo/PtqXs+3AOYGoOD9uQBBW7z3PX51tiAOyH4mkzYjxWHmIoHAOgbDp/1OIUwyWn5Z1NtaPeU87JNviaEU/JLGavPw6O/b4CA845Oua8yERCBKSGgAGJKsMqoCHQmwI2TvNPhvJsutx+vud73PsRtm+7QuX+BXT1YYB7OkB6XDclhM5TwBD2EHl5jf6rTAp0rg41I8ZwHyiilqQqDF2yAYL3PavaRh73E+nzjZPRqz30C2EiJ2zoX/zVu60xhCvdQ5Kml6Wa1NBe05TqthSzKnmc5y5E4J+rSMLuz2J78jgw+nZIDYPNnfcVXkgoYK4mACEw9AQUQU89YI4hACwFunPz0dRelfQ9oaTp+uEn3lAwBksuk43dHinrcrplWKHI/BhyukBwpna1vooQ+rTDl8AIF2oeMpvF/PsetNKpWWzhgxy891A5evHt6BkXu553HHNgfIcvuL7H6yM5WxXaIGIfdOCI/HKMcOLiZLKOcU4h21/dD6se2pJCyCCRCzJyJQRIH8/dkrMbjvxu/wobK70PGSyvaUOmQdBCBKSSgAGIK4cq0CJQJxOrDN5f/yu6dM2Q17P+jzJ0gFP33PAMGlGPFwPvDSfrDndzjemvSRj31oRb7oY2OGEECgwz+z+3arLOBwQMTx2DwwDKURrGB85UHPYE1jzG8sNFDmkNll+fiAVO8d8MHTX05DJqLoWDHA4CyvTxNTo6WmDy28QIObIcdnx8VWKbdVCw6eTvVgdDPHQ/hatyOSxl1boyIVigoiYAITAkBBRBTglVGRaCVQFoPqNgNa+60c26+NL2qOy4+0GEW6nTsrCUHz5LX4GHTHzp/atCdRkIdXjokzKPs/XkIGeykSw7pxVwNPLL675c9zvZduIvvfeCejE2mvD+isv1x2AuxC1YhMBr3cTBjZxzykGkeUUHuc/MDytRjGcnLqVh0ZlMRSLBcavdu2U7amoFnaAwhHlpwvzXu/RE0cR5ahQhiykVgSghM4F+LKRlXRkVgmyLAOyt4q+TpV3/H7qvhF/Iwfi1DFs9TiJ/p/LVOOZMv0cPl+p9wlnTB7ojpTtkfrdDnVX8PPGiTchrwlGy5LuoMEGieGzcbAzXb1Rbaqw56Ygoeuv3VXu23yr7vwAZQbgTF+JwXc4yTT8Fn4HXKvJb0YoKU8RNDezn0cpvr4OA52zhGWdG3PPCs8Qcv27L78XCpDbcmRe/FTkoiIAKTTUABxGQTlT0RaCNAx8aNk7xt8ycrrzVbPWR4YHV2tCkASJcsGBBkDwwbHhxAi3/8OQ1oS6sPaISHZtnrkHs/em33xLCBIsdtOvIscxXqwwae+/APB56U5sEOXSXawz6DOXtaZeFjrbKoD4sQ6bZOmqZRWmQ5cjr9qGcVF7g+lfhhhtyLOEQf10nN6ZwgoI7r5kYPpIbAsH+V1W/7AjpzFcKji9xTmQiIwGQSUAAxmTRlSwQ6EYCn21Afsdf95nP4pZ+exxCrBnSDdP70gcnZM7BgLX2S3N1psuw/vdGKPnyXBe3wT9hJSqihI+24nrejBcsEDdwuymCmMb/fTlx8iD1jzyOxepECnOg74ZwOGqmy6/Nwgty0mM6Fs/HZ52n7ObCVBaSc+ayinFrQhj4MblzOQ0nBq2yHOJtu6kLGVRCr4GxWjuA9GVeYred7MnRbJ6goicCUEFAAMSVYZVQEEoF0i2bFvrH8l3bfADdOpvdd1HwJgAEAnDpUGQjQG/ov6nRIsgwygoQyVw80aMcNpJYUUNDJph6pkXahhA8vYTBgsMERewU2TlJOv7t5iWNzFWIvqy852arzuQ+C5+Gn4iZLU/OpsB4pxmUXTxSEMIuYRbPbKrV7EYeinYsNqPiDuBp4sueN74cA8ysGoDUlERCBySKgAGKySMqOCHQgEP7u8zdeavXBYTg3KGEVwgMLlD2OgNfzVQgqJ4HnvGzhzhE5/7hvzj/j3SfikOynlQYfnv290XugmDR87wPN0yBu2zxhpwfagYt282Ci9YmTbmXiB79lEi8F2/mvrTGyo9Xm8hd/eg4FJ8fRi0+uFx4fbZyOn7KfKCo5lavsz+SrE8i9T87DluvTPpVx/qO8EWPefWb3/AgF/DOnDZUAoyQCk0tAAcTk8pQ1ESgI8HIFnfM7rjzPVoyu9o2TlCWHBjX3dsiyp43VAAYTTIWjhENkW9oHkcreBWq+suBRQfRAnron3+pt2GSJyKXGB0fN7bfdGgvtTQ+Aw8cff4EWu25RwkzxBs/GTs+xyhw667ickIzyPPiJ5GUcChkLPJdQSNVUK+mVL4EwRsqn6XmUGaDRDkOv+hqstdz/RVxeuQUCzkv7IUqIVRSBLSagAGKLEcqACIwlEMHDn1ffYd+990qr4K4Lf+YDVT2IoKOjq0vJRV6lNHnBvP6AOAPu0R1sco0ReLCnr1wgZ0usR7j7pIdFYnDCIIb+k8FCY16fvWSf42znudt5UBHBiitv7sH3GSBYWnIcHsGw1KrzOHOfsM+r3azHR+mUqJX2RmC6Xk7T5iKCf1xYMuBy1HOMlc87n3+2wb0QThFXLyq1NdhQ+WX2SAOUbKkoAiKwZQQUQGwZP/UWgXEJDGHj5OnXfcfvuLDRfIGeng8/pX3VwZ1k8pi844I+zmssosyUWnHkz298IuhgM9v4qbu9VHG5d2IphSDxcq6R/oo9sLqLPXWPh3swwxWJSU3VuVbZ5UVw2ri9E7Yr8ORpFsl3x3xjTK/jQJ10SDnlPH9HFe1ZxeUoM1HPUy4Es3T7K1twrwtWISojeELl4HLUeb5FLyooiYAIbAGBSf4XZAtmoq4iMEsIxOrDt265wi7fcKNVB0fdYXMlgG11BAvuxuDxuALQdGkpsEgy6DBgwE9ul7onTprucMmKVf4kpz1muSEFIxDgP/4ap5h7IOb09dvbH/Asm1+bU/hrmpmchH9KsM+gsuRYq/c/Eg908lEL05wf50Mpy6yyHHP25txOeSS2exsEkbPAsuuhQB2WKWPyMiuI2eqjLAxZ487PQwFvPS20UFQSARHYIgIKILYInzqLwFgCDAAGR4ftCzdd5q/q5l0P7gjhOdNvcrix8KjsjrJXUfS7GJC7HgID7ntgX3d8vtLgleQGvS09UZLt6U/qy/58URbt+W2buHRxzKID7SC+7wK3cm7RxklOp0Pi2dFrV3f5G7MRbKZMU21qos7z5Pl4E8p070y+AMP2VPVjlF2XOvkDDJlJymkzdKO72/MFBwRsa8Gx9lur33MxmhnocDVISQREYEsJKIDYUoLqLwIlAnTOdN5cfbilsQo/fkf9Vd1+NwS9Grwd32vhQQFXGOj6UoTgZRZdVrLJYIP946mTyV3SZUbIkG1QJ/dLLSlg4eWEfrw062UHnOCtebjSCJNTLJ6qOXdfqw8cWaxCcKa8WuIBQEwQMky3mUplPzOeEgulFFVXRaWoQ0BZxhtXe5rBChp5KcPuvQCxA27PUBIBEZgUAgogJgWjjIgAVw8QPMA7X7d6hX3ohu9ZZf2IjfD2QchwT0AOAlIg4C4PHi9cfnLqvGThrjB5RLTSSboWnSAqtJ8bPWd/trtW1mEfrjBQn/sc6vP77LV7n2QP2G6Zz3EqVh8wZE78JwUzWvY6vK1zJ9zWyfNN/8xwPpH8XFBJM2ePlFhnKp9miy4UqcvPmAADndmP8rDDvvxeGhuwCtG3wuyWs9CI+ei2TmJWEoEtIqAAYovwqbMINAnwcgEvOXzm+h/ZUBWBA3bzFZcqGBjAmXFlgO6NDi45f+QUuQSO14OK1C/psC31S3sj3Ew6ZHtpjOwykXkJBwYPlYE+280W2LP3OsrnMrXBQ5orI5dKbZ5Vlj7DbIABBAMjzIt+m+fCcjqpTAN1Pxe0xfyzKWYMCtivnChjcnup2PHIdtdFEDG6FgHe4OV4iNbNIezYR0IREIGJEVAAMTFO0hKBjRLgr9w+vAviohVX2sUrr8ZjlEew5pD3GsCLuRMLp+fekEFCMumPpEaRAQX/sOQftGdVl7NcBCRZxXuwHMZYRvLnPtAb45HVL1h2tM3DxskUvKT2KT16pIAgYumJVh/e3qpzOBrmks+3YAERp+viXPZgKuuVuiQ9yNmXH55uBBsefLCNMg7lBxaS/RBW6ujYh4d53fk1tPCfvpIilZVEQAS6IqAAoitcUhaBzgToigZHh+yM676H10LgXQwQ0InXsSfCnV04K3g9d6B0ie4t6eSyR8ymIxZgYMFu7jBzm99VAUH04bjuJt0EnDb+MFDogxOvz6vZEf3L7Dl7P3orXLrIE4wM82HkUNn1NdbAWzurNfxTAxnnz8R5p7l71Q/N806NrFO90Mt9KWCxqEYFOYuhX87xNSDlDZUbfor3ZfwMdf7zpw2VJKMkAptDQAHE5lBTHxEoEeDGSd7p8P3bfo+Nk6tx22ba+8Cl+7RngY4diR4NQQEz/xQHyl0jOT8U+T+mxxcos4fvhoC+75FgP8o8snAjaIci6nxZlo8LT83Nmm846Ck2p9rHDls58Xwwl+0egV/9D7PKfM497cvgRNia46dmTmEknk4uF3oUkEHKQjPZKskCi+dZK8nQ0x9Vids5b/8cDCGnMSUREIHNIqAAYrOwqZMIJAK8pEDndM+GNfbZv1xsFTwwiivlXH1ocPMe1ajgbo6BAMvwW94PZbQVAYK3eGvRzwOH7CLDTHnPgwcL2WZancDjqvGnPqdmJy05zA5ZvMfWX32I8+DJg4Ht9nzsWaxarZbOvWjOVV6K4AnHCoQHDG2O3duoA9WwQhn7llULG9kms5YAhKsQ6/A91O7El3YRGvFPYB37VZREQAS6JqAAomtk6iACTQKxz+E/rv6m3VLF+y6w+kAHX4M391svoRoOj87e1x/QzmDAnRtNwQsmx8cAg3LWXTPXXImH1J923Jlm15kzLtPz6Y+NvortaPPtfQ95PoIHbuycpv/NOS7mWsFtnTb3WLzcilXKXOznSu/Pc/YggoVcbgkqsr4zQpmn66qU5/5hh1xZdl03lvTZh3y4AMHOo+tQuf0s3J1xK5Z7yIcNSiIgAt0QmKZ/WbqZonRFYGYSoIunc75hzR32/dt/b/XVG/wpkwwUkqOiBh0T9kK4Rwsn5e7PfZY7PGgwZ/hAtbRu4WFE6cRTn+Qwk820moERIOSY9INVNFXn9duL9jk2PUDKxy+Z2epFnhguZez1etzWifdk9NN/p/P0qWQUnmHuPDOWvY6D53nOIWdOPU9FIQRoYz982OT2WEeZMq7ScGXIVyVwe6vdfj5b8EFAoSQCItAVAQUQXeGSsgg0CTAooDPkbZsGp12Dh/JLF1CBi2x6MNT81dzu0eCs3HtRg4FFcmyxWsE2ujMecimtNuSf1O4YvY+PwFGgSofMIAJ7DPprtnhDnz1rWbptk3szpj/lWe74TGvgdd8Iu9yZpxPNs8scHA1EPF0/ZefQWmYPZ0QdLyQBR/HggQpItEVeTN6G3HljfAYR9TV49PbIZXhj50/RMhM4caZKItA7BKZjd1Xv0NFMRWAjBOicv3fbb+179/8RD40axkOj8MuWDit7vlSm86Kngzy8GYuUop7CAOTox25cSYjkKxHuEaHL/kjs4brJoEtcDmHaG9Gw/3jIi/y2Tb79k2/gnP6Ex1rjBBrbn2T1FV+1vv7VNjIEh82Tci55hlGNHOI4b2p4mW08JfJixssSKBdnmfu6fj6wzXVzToAMJKroWxnB8yFWfNn6tn8stZVEQAS6IKAAogtYUhWBMgE+ZfJT116EPXjwRHSQcEopAMgOn6sJ2bkxWEhuDDrwgNDIXi85fvbzR1UzQMiD8HKEX56gLIQuY1cIUPYMA/MZFPX5NXvcdgfYETvu7xZ4K+fMSZhv31yr7fsvZje9wfr7eSKcXZxYnmk+Jxd7+wTOIPpMQNVVOGTYxhMq++b/2ey2c8x2f/lELUhPBEQABBRA6K+BCGwmgfNuvNxuqt9r1Q2jvvrAux/CL9FkCgUgiXX1yN1n4sCgAxmDBwYfjBJyaJF653raCNn0eYWW20E3bH4YwaurB9YP2Ik7Hm3XLl/p8+BlEy9kvZYyJzhVyc+lZJwIfHC8Y2tkmQ3e8hBbNPceGx1BgIMgywMvqpfm2W5iTECRdalH0zzVPAQlngobaGsZwzsldb5wzO4xW7z4T7bb7tFTuQiIwEQIKICYCCXpiEAHAsONkcJzuVPPzjA8WnJgCAm4EsHQAL6Kfo4HiJoVlyWdJGSZ1+uTrLwyQUfszhAeM+W0VbGR6rAtveZg+/wl91hj3l3o7yPFIByhLRUTaJOzijafLHVYLU84y9x+p3Lqko7oV3juQmJr1j899WZbJE6X1QDj5ZDlxpB5H8q48ZFj4OP9sj5l5TpVmUr9IwhjU7Vvjj35qF3tlQ93LR1EQAQmSEABxARBSU0E2gm8YJ9j7Gs3/cJum7PSanjr5gieJxCOm44+ynRyvorAy/70eUjJp+X1hsKxMTjI3g4ZfxxzH4Tbodj1UsGlXqzYaN8GW3T/brbw9mU20rfeqiNsYCo6oRyDMGeKtnI5+rnCpg9uYjy7Yb81p/Z8XL5oYBMCV064mTGl0GOtXM7Nm8piGqHXXg858rTig62cAMzgYadFo/bKp+1V0lBRBERgIgRm0kXSicxXOiIwYwgM4AmPL+crsucgDofDSm+dpPPDJwcC9GP8Fe57IyI4cCFXELyQ9NGHQYH7TnZnN1TSH4ghYFDi0rIdNNQaA7b0xoNxCycvCVAlbRJk8FH3crrbg0EMNw/SZXtelMt6Zd2NlGkbRpKt0EsBz5gxOA7HxuTY5k+k5B0jUfYnVJIHZekyUMpZDznz/IEdsmlg92SLLPpTL3SYl/sV5WS70jfP/vrYfaADKEoiIAJdEVAA0RUuKYtAkwAd+pN2f5gtG1lo9X78moWzcgfPvQseBHBFAa6Mdeh6wOBt1EPyLOnSg1HH+3tjChpYjz8eTMABpn7UhUPGy6EW376XzbtvRxup4dHM8Oh8uBX7JW+NcvLUScYym3nwMuo0FXUWfVWAcn6yrSh7TvXcL0UE7JX03Tba+NQml+X+LLuMHCDL3V2HB7/kACETM4+Ycp0Cssq80nxz3eWZiZep64rJTpiAuie0pe8EteqA7ThvyI550K6o5D5JS0cREIEJEFAAMQFIUhGB8QjMrfXbRx7+kuTv4PTou+ig+IubKXyZOyj6KMiTD2bAwD8p+bI6iwgQuGrgqtlTshya3E/BP+5f8crwvsEFtuSmg/DCKjyOOfdjW6yAuCFOwgdKltDo/3E4T24MJTa3O9zUEW1uINuBkpvKdrxfdMwyGs4MWmxSzedDPXzSZPO4bOSHGdtSsZiXB0+5nU204114YBk5dVyInMVIWewiPxeUEMic9sLDbaBf/wwGJuUi0A0B/Z/TDS3pikCJAJ06n7Ww38Jd7KSdHmTV+QN+OyVVari+z82N/OMrD/BtHgTQg+HjchS9jR2YsoOshlMt6XkzHCR9pBvgcn1t1JbeeoD1r1tgdTzUgKYZlnhyG6mYHCvLnAQNUIfG88fHRdmdL5tYRu4JBZbTwE2d3JoHTTV0S8OzUC7THoy444Y8bFGnGIeVUj/OJebjOmxjIeuwWO5b2ITQ1SLPXVyWvgvufeibM98eddhSW7YT2GEVJaYGbSUREIEJElAAMUFQUhOBTgTozrh68PIDTjQbqqfbOf36Pncg0GtRgT4t1VJIgTqbslNlEJFa06oEj7xu70EG/aB/cn+MxcCk3jdic1ftYNvfuo9fxvBgBePwjg33sbSffS2nUCTKOS/qJcOpHjJvZjsLSJEXZTfgTezSTFBkvSxj2eeDAu345ZBs0IODMB55tub9vEMWlDLOmcm75HJMMqKAcleOE2ro6ys9qI+OjNizj9vH69E9GdZRBERgogQUQEyUlPREoAMBvguDr/M+aNFu9vgdH4j3UMxJvpJHd2jJe9Fx0WGnMICGIIeIKbUhMKAK5eziKwVs5fs20IZfzUkv66DzDjcdgicp9uOHevoF7b7VHaYbSHa8mAdimxd9IBrn4Clng7ejA0UsM2VTSYZ6qHsjDxCErMhpgx2ZkLPIT4xFPQ8skHvKutGfspb2XC8GQj3mV8jY2QdJbTEWpK7Cun+wOjQw3154wp62964L8d0lvlRTEgER6I6AAojueElbBMYQ8Ac2Qfqy/U+w+jCeDcHbA+nwXbPFK0KC1QXKXRw6qc6Vh9TOUu6NjPrFngqUR7FxctE9u9vCu3dNqw/QZfCQTGYnyl7JHAxQhkSn7I4367Dd27zgKk3HHH2og/bcpciTdraJShEwUD/34QR8PNoPGRq9nXUUcpPnlLNAWeiwHPXczKyZQhF5cW5oddu0RXnSZvxQrQ3YkvnY/HrUnq7Ct6YqiYAIbB4BBRCbx029RKAgwJUBXrA4ePHu9s8HPgUv1uqD3+KKQaGCVnixcLLZaedQAkopdEiejqsJbMler+w96Qtho39kju2A2zapQ61irBgvcg4/xgwE3k5jVGAqCqVyNuJNud0dNFXKA7A/UmGCbfgUJ89y0ZjGLndnE3UjZ5urs18uexvKbCiXKSrGye3sU4wX+hRStWp9fX32/BP2tjkDfKkXjSmJgAhsLgEFEJtLTv1EoESAt3DSIT1r2aNs98piM7wV02/sDCcIXa4qeBVOL7s0/xVMN5ZcWdLwNvo+BBqURz8GClx92H7Fftj/sMTq2ERJmWsVRtDbjdFK6eNOH3WKigAg6pB54qAsUCmnsoMuO2Y2u62cZ3U3QD0PkpB7OdvzclakiLbDhoujH9tYzrrMijmznOXs7+OwTkNIbIv2IsezMrgq1D/PHrb/Ajv2obvZCN5fEitH3k8HERCBrgkogOgamTqIQGcCvMwwD0vkJ+99DB4uhQACPo2PSUiXM5KDo7+r4MDgwC9LwFFSFo6QZQ8I3HGzD2sUYpWjho2T6xbbkuX7e5liasTeiDQrGmNiXvr48KjTEXs5516ngPX8YXemwkFnOc1lVW+PQ8hZZzvrbi+XGQyErWinjp84db0DC2NTp/EKrdzPWZXLoYDO+Zz4MrMaXt35zGOx6RTjKngIRspFYPMJKIDYfHbqKQItBPh6bzqnp+95hO1hi6wy0Oe3c9KZUl64STgzOn1efo+1CHd00PC7KODU6TeTD8YKQ+7YwK2aO9x8sNUG56bbNmHDm3jwDi3TyRU0si2MRNl/4bMj23NOnSiHHq2Uy1nVB2YZc0jtWZEyL6LgZbSHLCbJPkWKMvMoo8g+rDL3Mg6hEmqUM/m8U7HoxyoBo41ZDU+cfChWH/bfY5ErMqhTEgER2DICCiC2jJ96i0ALAa4s+CrEXkfzpQ/uj/0XLxwWXRYDBObUi+T/E3rdNdxRsup6UPLLI7htc+H9u9giPHWST5/kSgIvX7gSvWbuGjaTEdSow48n5nnc5vCFyFUo9w8O0S0m4/UQUhtltoX94hxoA22uSmNZz+tRZiXKKDJ5/1RM9ShTj+385DKbsgkWvY11FqjnCcFDDe9I7Z9jSxaYvfpZD/AhtPoQfJSLwJYRUACxZfzUWwRaCPABUnU87+Dpy460I/qXWX1uDQ+X4nsXQo0OEBV3dixiZQK/yP2HfFbyJgQaRZABQaVew8bJQ5Fj1YF1fGjSFwyiUozBsfIYbqxcZqdsgDkn4v07yWgnp8Jx+6jeLc0A7eVVC5bjQ1UmDsPk9Sz0c6VuSR563t97pHa3H/Uwmvux6ueR2yOjjA+IwqC1/gX21KN2s/l4Z0nBNPSUi4AIbDYBBRCbjU4dRWB8AlyFOPXgp2ErRD/2QKS3ZIQ2fTE9Y9pkmbwmXR3fGhGXOthKH+gbJ2tDtt2dy/x9F3yAFGX+CcdaCkiSx3XzcNjJdgoQIHOnTRm8Lsver5SHnHZdl3Y4idzHc9bZThnb8UHVC8wp9w9lTKy7QqpmUVFpsQNdt8c+qavnXmYDU9ZxRZazro9DnWjPe09w6eKQ3Sp20pF7+hMndenCIeogApNCQAHEpGCUERFoEuDDpbgKcSAeLvWYBfvb6BzcPlituYL7Yzg5ujoGCyml1QYurfvyOuT+SxnOtV4ZtYGhBbYUex/q2ATY9KsoRSVbKTJ3qhwBCl4uK5b7UQfJVXGgGlOosy8rnKersoF1ZB68RB/krpv1izL18IkUZfanEa97JdksxsqK3oQyqyVWzfGhQB2fCwv4xLwoBvM+XMI4+Yn75fddZLtoUxIBEdhyAgogtpyhLIhARwIMAl558BPxum0spOP/tPCDaRmdzg7dkNE3xnV5hA6Qc/WBjfj0jdqSWw60/jUL8e4Lrj7gcghb2Mx2r6AYv+TDYLbT4ni9D/tFQmf2874cN+TIaZcTY0552Hcd9qEcB9aZU9edN3XZyA+znHvZJfnghlJ/qridaIcgNxc2KQhZFBxCtl+0wQbG5B7Jav98O3zvebbvbot4NQMrQWFfuQiIwGQQ0P9Sk0FRNkSgjQBXIejn+IjrJy19kDUGcBkDMgYGfCy1b6XMTjcFA9lAOGo4PAYM81Ytte38fRf50gWctPtK6hUOG32jTDOugDycd1GnjAo8lIW56m1sL7exzIbcx3VwCDEL3hR9kEeRporUQch+3jcrsRydvZzbI8Ap2lFgOc7Py7kvyv7Y71qfzetv2PNO2C+rUUlJBERgMgkogJhMmrIlAiUCvFDBSxnvffDf2q4V3D6I10YzgGj45j44Oo8c0uWM5N4QHIT/Rc6nTu6w/BCr5vddsNH16Iv5CZ/ITkUD5WxEYlDhbcyTKOWlzi5He/Qp+rF/qVMUvR0HjudmWECiM4+gxm2hkf3dBnPohD0vs54/yFKiIFIuu04ew5tK5VD3cdDIf81QpriG1YdnHb2r7bv7Qr9UFCs8bkIHERCBSSGgAGJSMMqICHQmEO7uRfseZ5U52FAJ91bhpspwft4NFfzHtQVewkgbJ/m+iz1swZ274aFRwy7zeIAG6aB99YKdy4ZiNOQudqMol3RCxcctHdx4rkcwEQGBi2mrZDe6FrbzGNGXEYYHFblPlNOJoi0MII/pcQ6RokxRSexlH5PzwYdlt82cVfDFBtZ51UF7/JF7ePCg910EVOUiMLkEFEBMLk9ZE4EWAny4FPc8PHPZIyxO4igAACXESURBVG2nUTwAqi9vlHSv2fSOTf/NjZN1bH0YaL7vAr6Ryf0oy+FcC2nZw7qQSvmT28ao5PbCKNRbnD/toDH60UmzC+ssR4qyn4A3pvmFk/c+JX0aoKycvBmHshrby3pujzIIQ9855E75XzLvAp03/u1hNtcfJ142Uh5UZREQgS0loABiSwmqvwhsggDvnZhT7beX7Ps4rELgRVvQb+DSBq/VM3HVIflhOlEEELhVc7vb8L6LlUuL913Qb7o2/SU/boS9kdyHJlspCEDZZTiU9VjOaq7gDhiCIiDJ+q5Deei7oDkux2xPHI8fqno524qgJAKA5gSyheiUx8vSZjBDQRhF7qByHx+HzfhnDPfAEmffnPn2oH3m2wP3xbtCOAV2VRIBEZgSAgogpgSrjIpAk0CsQjwDqxA7DM/xVYhaBW+DhNPzJXf3h8kp1qsjNofvu7il9X0X8UO/aRUld444MI8ggLmXaQ8pmU06hTOnPDxr1nPlLPM+JTkHL3viIprxTsk2J+HdeYgP27Od4gRQL0yzQF3KsjxXk4z9mXKbd4QCdZpGUCRIiBBIMGj42xP3pwLkqCiJgAhMGQEFEFOGVoZFoEmAqwxz8VCp0x/+Uvd9XJWITZT0fvzjPpHvu1h+oPWtn99834X7TPeQ2WDWpX+k2P1kbi98JutI3o6D6+LAvFymDuuRoswAI8ps8yCCOeVo8DYapwyfXCz0GMR4HzSwLT6um2WFkO1UQApbUfdgJbd5mXap2JSlLrh1s2+OHf+g7eyAPRenjZN5hYfaSiIgApNPQAHE5DOVRREYQ4C3dXIvxIGLdrWdawvT677hEHkpw+8egBfkpYsFfN/FHel9F8UTJ5OHhE33nKWcxdzoeZQhdwcOJ0uHHysS3owDfS/LTNkPF/UkxTEUCkESua3o5waTAsePLkU5D+RBB8o+F+a5n+vjkNU8Z5BAubdlXZZdBwWXs46C6yJw4KZUBGfz+0fspU89yM3rrov0tegoAlNJQAHEVNKVbREoE4AT5KOtz3zEy/BYZQQOdKRwgr76gLZKvWo74omTlREEG3CQXKHgykVKzKOcRXSqTJF7mTZRcNXcx8tZKZx59PO2dhtsRKKTbmmHjbBFOzEQHXko+jC5U/Rn7u3I/ZxZRdl1m12TSu7LivdDuzeEMvKiyDLp8X0X8+yZx+xtA33pjajspSQCIjC1BBRATC1fWReBggBd3ShWHA7dbk87fukDrLpgjvn+CFy45xs2t7tzL5t3z87YOJkeGsUVCzpHd5jhcMN5Ukhfy3q5jTJ+mApdllFxR+8dcltWcFG5nPWLFQPUvRyG8yAcl8nHR/8IGGJgby7ZTdrJlvfLbSyz6NXQR+5jUs4yjLGJnwheEITV/G2b8+2wPfvt6Y/dy0bBUrdtgpGSCGwFAgogtgJkDSECQSCW1l9x8BN8FaJBZ4jXZPRtmO/vu2jwfRcQ5XUJdEMlHCbz7LO9gGpLanHYpX7U8zY6YRaynXD8RVvoMaduKacB14OMiW3loIRtaeJsHZvYXuiXDVGe1V2c2zg+k59zlF1AIQtuj0HW6OiIPfeEfUPkuQ4iIAJTT0ABxNQz1ggiUBBIqxCjdujiPezlux9ruHCPPRAjtnTF/jawFpv/aqPw8Vh3CEfPniy7k8WBuZfDZJbRp7qD9gJ8LHPKkNMJh9N1MQ5hI/RcOR/YVuoyZsxoY19+yvMLO2HDzyMLfazS2NEGUZpjqbP394YkDHsUeeIlHqw2zFlkh++zwA5atp2vPkSAFlrKRUAEpo6AAoipYyvLItCRQBW7JvnL+WUHnGA7VefY3A072ZJb8dbOan7iJJxl8q3Z2YYfLTtcOlRPaCycKgRexoHBBCuss1+hzzoqlFNYrApkWbR50EEdJOq6vteyzVwOfVZjfixHnxiHMiZfUWCB4+Hjc2AdirnKWhqvLKC+t0APYRg2pVbxxMnFc0btlL862DvopovMR5kIbCUCCiC2EmgNIwJBgJsj+SrveXCAL9r7WNvh9kOthudD4LWdybcXjhI9wgG3OGo6UzbQwUbGMmRZ1HS2SVzUqe99vcBDrudB2eY2mGdZ2HTlqDDHhyqcG1M56HBR7t86eNO+y0OHtvInGR07rzSKy2mej6x+0pG72O474JZXmEm3xYaSchEQgakmUFk/uME3eudD+l8a/4jwFxLTqjXrPd99l6We6yACIiACIiACIjD7Cdx2x71+kosXzvOcQbp/WEMUrxUIx6KDCIiACIiACIhANwQUQHRDS7oiIAIiIAIiIAJOQAGE/iKIgAiIgAiIgAh0TUABRNfI1EEEREAEREAEREABhP4OiIAIiIAIiIAIdE1AAUTXyNRBBERABERABERAAYT+DoiACIiACIiACHRNQAFE18jUQQREQAREQAREQAGE/g6IgAiIgAiIgAh0TUABRNfI1EEEREAEREAEREABhP4OiIAIiIAIiIAIdE1AAUTXyNRBBERABERABERAAYT+DoiACIiACIiACHRNQAFE18jUQQREQAREQAREQAGE/g6IgAiIgAiIgAh0TUABRNfI1EEEREAEREAEREABhP4OiIAIiIAIiIAIdE1AAUTXyNRBBERABERABERAAYT+DoiACIiACIiACHRNQAFE18jUQQREQAREQAREQAGE/g6IgAiIgAiIgAh0TUABRNfI1EEEREAEREAEREABhP4OiIAIiIAIiIAIdE1AAUTXyNRBBERABERABERAAYT+DoiACIiACIiACHRNQAFE18jUQQREQAREQAREQAGE/g6IgAiIgAiIgAh0TUABRNfI1EEEREAEREAEREABhP4OiIAIiIAIiIAIdE1AAUTXyNRBBERABERABERAAYT+DoiACIiACIiACHRNQAFE18jUQQREQAREQAREQAGE/g6IgAiIgAiIgAh0TUABRNfI1EEEREAEREAEREABhP4OiIAIiIAIiIAIdE1AAUTXyNRBBERABERABERAAYT+DoiACIiACIiACHRNQAFE18jUQQREQAREQAREQAGE/g6IgAiIgAiIgAh0TUABRNfI1EEEREAEREAEREABhP4OiIAIiIAIiIAIdE1AAUTXyNRBBERABERABERAAYT+DoiACIiACIiACHRNQAFE18jUoVcIrFy1ykZHR3tluprnViTw01/80v71w2cYcyUREIHNI1BZP7ihYQ3Df37g0RoN1PBhWrVmvee777LUcx1EYKYSWHH7HfZfF3zTfvbLX9ltt99ug4MbrL+/z5btsYfts/dedtLxx9kJxx4zU6c/5fOiszzr05/1cfbcY3f74LvfOeVjtg9w3/0r7R/feFq7uKjPGRiwnXfeyXbeaUc77JCD7XFHP9bmzJlTtE9G4eprr7OTT3lVYeqLZ59lhx50YFFXQQREIBG47Y57vbB44TzPK5WK+Ye1ilmfS3UQgR4mMDw8Yh/66Mftgu98z+r1esuZsO2GG2/yz8WX/cQeeOgh9rpX/YM95PAHtuhtC5U1a9bYdX++wU+1ndPWOv+RkZFiDuOOefX/FU0LFyywpz7xJHvly19i8+elf8SKxs0s/AV/H8qJdQUQZSIqi8DECOgSxsQ4SWuGEuBlCv6i/fq3vjMmeFi8eJHVarWWmf8JzukfXvdGX6VoaVBlRhJYs3atnff1C+wlr3yN3bR8+aTM8cTjjrFHP/JI/7vBnHUlERCB7gloBaJ7Zuoxgwi88/3/Zr/7wx+LGR10wP724hc8zx595JG2YMF83wNxy2232fkXfMsu+PZ3bWh42AONf3nXe+3sMz9sBx94QNFXha1P4NMf/YgduN9+xcBr1621O+++x67+v2vtW9+/0P4PlxuYuIr08le/wb7y2bNtxx227HLqAC6TnPFv77OhoSFjWUkERGDzCGgFYvO4qdcMIPCt711ol//iV8VMnnzSifaFT37MHv+44zx4YANXIPZetsxOfe0/2ic+8u82d266nr5u/Xp723veX/RVYXoI8LIEA7347LzTTn6Z6TnPeLr9J/YmvPmfXmd9fel3zv0rV9p7PvihSZuogodJQylD2ygBrUBso198r582r+F//NOfKU7jwQ88zN71L6f5Bp9C2FZ4EHTeeuob7O3v/VdvufHm5XYVLmkchn0RG0u//+Of7Lrrb7Db77wT1+Hn2m677mqPfMTDbIel3f0Sngw73ENwOTaJ/uWmm209giCuoBx2yCG2CzYeMv3qN7+1u+9JG58e9MAH2J67776xU9toG8e48k9X2QpsSKWz3X/ffezgAw7A+e+y0X6T2fispz/VuLHy//3rv7tZbpC97PKf2bGPeXTLMJStXbvOZY9+5BG2/Xbb2YYNG+yK3/4OTH5nC+bPt3946Yu8nZtrL/7xT4r+Jz7uWBvo7/fVqR9eclkhf9iDH2S77rJzUW8vrLjjDvvdlc3VLwau3LTbnrjq9fNfXWHLb7nVuIl0z913s/323cf3XSiIaaelei8RGPu3vZdmr7luswToFO69734/f+4Kfsupr99o8BCgTjr+ePv0F861m5ff4qLv/s8Pxw0geNfCRz95DpbPb4zuRc5fxXQ8p77mVbbd4sWFvFNhsuz8z8WX2OlnnW133X13yzDVatVe9fKX2oue/1z7/JfPsyvAhuntp71xswIIsvn3Mz9mv7jiNy3jsELWf/3UJ9urT3m5LV60cEz7VAi4ifK7P7jIfv2737v5C3948ZgA4gxwWX7rrd7+2bPONO51efM73+NBBIW87BEBxOo1q42XviI95qgjPYBgEPEF8OPlEqbnP+dZ9oZ/fEWojcm/fP7X7byvXeByBldcASsn3sn2pf/6mv3nef9V/F0tt+++26522uteYxxfSQR6kYACiF781jRnu+iSSwsKhx58kO23zz5FfWOFarVi5376E379m3p9tc7/C5z71a/ZRz/16TEbM8M2VwIuvOhH9ser/tc++sEP2LI994imlnyy7NBZfeTjn2yxHRWuxnzs7HMm5ZkX3E9y6lvfYatWrwnzLTmdIveSXPbTy+2cj52BW2Q3f4WjxfAmKn/1lCcVAcRPf/4LWz84aPPmzu3Y63asDPzrR84sgoeOSuMIn4Qg4ONnp5UtrlK8HnfsMGhqT+Rw8WU/LcTtwQOfP/KO9/2bMegbL9224nZ7/Zvfai/4m2f7OOPpSS4CM5VA5389Z+psNS8RyASuvf7PBYtjHvOoojyRAh3PeM6H/XkZ4IxPfKowtS+eIcHVBi6bc9mat4Ne+pPL3YndetsKe/O73uN7L+JafXScLDvcSHjGJ84Os7Z0yRI7/tijfT50VD/52c/th5f+GCsr/+lL9YVilwXuMXjzO99dBA/cO/LUJz7eHnXkEe5EuepzPp6zwWdscPXnAx863c768Ae7HGXz1PkrnSstDJZ4CeJGXF5h4Ngpvf8/TjfevfHwhzzYHvHQh3hwx4BjIulJJ57gz8pggHD7HXfa//7fNR1XqLjCceddd7lJzuuJJx7fYv5z536lCB4YgDz1CSfZo3EOhx16sF1z7fV2KQIwrqowMTjk32FeMlESgV4ioACil74tzbUgcPc99xTlPXbbrShvaaFeb9j7/v0jhRk6UW7mi4cZcc/BcY99jF+HP/Wt6UFMDGbO+/o37IXPfXbRb7Ls0OCZn2yuhHAT6KfO+JDts9eyYiw616dgmf/vX/MG422tm5s++qlziqV2PnyLd0gs2X67whzvcDn+mMfay179Ot9nwf0F3/7+D+xpT3pCoTNVhUULF+KSySJjkMMU+zw6jcfg4ZUve4m99O+e36l5ozLuJWHgEZdLGJh12iNz8WU/LuxQn5s/I/Gun8/855ei6qsLvBwSabdddrHjjn6MX1b5wpe/6g/te9+/f9i+8rlP+6WU0FMuAjOdQHWmT1DzE4F2AnTOsf+BbTssXdKuUtTvwi2BfFDQeJ/2Zwv85vdX+i9sGuAdHO9+65uK4KEwigJXI572xKbjpCMtp8myc+999xltRXrDq17REjyE/PAHHGqnvPjkqHad81f9RRdfWvT78Afe0xI8RAOv278ec4hUvpQUsqnKly7ZvjBdDiALYS4c8fCHblbwEHbKlyPKmy2jnfnGLl9ceNHFxktcTCcd/zjfS+GVtgP3kTBAZboZGyyvue76Ng1VRWBmE9AKxMz+fjS7DgTq9dHiUets5hLyeIn7GL6PvQrjJT7p8JLvfqNovvQnzevadMoPwOOUx0t/88y/sm9fmAIHbrRcfuttxZ6AybLDywbx1EieJzcUjpe4jP6Jz3xuvOaNyn/x61/7JRkq8c6N8gpHe8eHPqj5FM8bb1re3jxl9fL3XMclhvHSUY94+HhNE5Iff8zR9m+nf9T3UHCfAh99XX5S5dXXXFsEmVwR4qpMOV384+bfocc+6pHlpjHlh4BlBLE34a4g/p1TEoFeIaAAole+Kc2zIMC9BrzzIZaz78t3YxQKW1Dg9f1I++6zdxQ75vvstZfvDeD1cibuh4hNhZNlp3zHBW//29htf7y9kns7Jnq9v3xSt9y6oqhyCf69WFLfWOLqDPdf8NZWrl7E8zU21mdL2ya66sT3fGxJ4jMpuMIUGyAvxmWMcgDxo9LlC+rNxy2i5XQr+EX65ne/37KCFPLIr7/hL1G0G2++uSirIAK9QEABRC98S5rjGAK8LS8CiNvvTJvZxihB8JijHumbDstt3LPA6/dMAwP95aaWa+vcPLmxRKdJp81fqUx339vcl1G+Rr8ldspOc28ELBtL3Ky317I9N2sp/J7S3DkGHd9EEoMn3j554P77TUR9s3UYpMT3TSM77bDDZtuaSEdexogA4kfYNPuPp7ys6PajS39SlMuXOyjkA8r4icTLT+VLUCHvlMetxZ3aJBOBmUhAAcRM/FY0p00S4LXj+PXGhwuVNzCWOz/hhMcZP+X0qc99oQggypvfqNOHX9aR+CCiTSU6tkj9fc1gZLLszMODqyLdh/0Qm0p8uNTmpGq1ed7sf/hhD5iwmfK5TrhTl4q8xBKXcrgCxUBpKtNRRzwcgef2vteGARKDTm4iZc4VGibeDfPItssltbbLadwwueOOEwt2+IAyJRHoJQIKIHrp29JcCwInHHe0xVLyb6/8Ax6udI/tNMF/qK/841WFnXiCYwh2LP2yjQcKRVt7vmrVajiYplMvv6NhsuyUn3bJ+fAXf6fnEnBuceth+zwnUi/PndfhP/vxMybSbavpfA8P/IpE5867MqYy8RLNSQg840FR/LvGACL+znHsk044bszL2ni3DvfV8E4QJj7g7KgjHuFlHURgthEYf/fZbDtTnc+sIvDYRx1VXHfntfgPffSsCZ0fA40//e/Vhe5j8DbGctpv3+a+h1jhKLeXy9f/pXn9mhv8yhsPJ8vOgfvtWwzJpXH+Ah4v/eyXV/jjmMdr35i8fJnlGowRdxFsrM/WauP7Ti4pbUxsX1Gaqnk8+aTHF6bjskXkbCi3F4oolFlehedIKInAbCWgAGK2frOz/Ly4WfAFz2k+d4G/DPnwno0lbkh8xevfWGwy5Iuc2p3RiccdW5i47s832IU/7HwHR3r642cK3Yc+6PCWd2NMlh1eSihfZuHTDTttkhweHvEHSRUT6rLABy7x9edMfEslr/uPl7jngw+24qoAGU1lYvDw9vd+oBiCz2TgOye2RuLGyQgGeKfED350SXHHBOXljZXl+ZxQej04HzpWvsxV1mP5q//9DTv3q+fbL3/9m+IBXu06qovATCWgAGKmfjOa1yYJvOzkF7Zs3jvrnM/6+w/af6VzIyJ/wb7i9af6/fZh+JSXnDxmBz03AzIYiPTB0z/md1dEPfLPfPFL/hjrqPOWznKaLDu8XPF3z3tOYZq3i/7z295lP778575ZjysFvM3wlNe+wV8MVih2WeC+gmfgHReR3o2XV13x2/TuiZAx5yoI34hJp8f3SXz6818sN09Ked26dXgPx6/tLe9+n/3TW95uq9ekx2pz0+p73vrmMZcNJmXQcYyUN0l+4MOnF1pleSHMBd5Oy8sYTPy7+CY83bPTig4fyc2VMwZjrz3tLf7SsmxCmQj0BAHtgeiJr0mT7ESAbz58/zvfZq/953/xR0xThysR/HBvAx96dA/eTMmH9LSnE/Erke8g6JTe/qZT7fkvO8V/OdJ5PfOFL7YHH36YHfPoR9sduG3xEjwr4o7SnR8nHHsMngVw9BhTk2Xnuc/8a/vpz3/pv1I5CH+t8sPzr+AP3/bIxMdt81ZSPqdgcxIfRHXZT3+G2wmXu83Xv+kt9lA8XplPWuTdJvwV/s3vXli8zItBx2v+4e83Z6iiz+swRmw+bVjDuK+kfBdDKHLD4gfe9bZx3zkSepOdP5GPtj7nc76/JN72yaCO8vES96288TWvanmD6LNPfqkd8bCH+t+jdevW229//4eW/RQMSPiUUyUR6CUCCiB66dvSXMcQ4L6Dz3/yY3ba29/lr54OBTr4spMPOfcqvOQFf2t//+K/C9GYnM9yOPPfPmCnveP/+a2DvFzB1zaXX90cnfhY63e8+dSotuSTZYcO6yMfeK998PQz7Zvfu7B4iBYvW0TiPN526j/Zq954Woi6zvmMiTPxYrA3vvWduDTxZw8iIlhpN8ZNjKe9/tVb7NDLt7u2j8E6vy++nvstb3zDhDfJdrKzuTK+zpvvqCjfiskVqo295ptj8YFf969cVbyQjYEdP9/4zvfGTIWPIn/tK04ZI5dABGY6AQUQM/0b0vw2SYC32/G9DT//1RX2X3jZ089/1bzlLzrT4T3++ON8mf4QXNveVHrogw/3d2Dw9c681t/+q3j/ffex5z3rGca3RI53VwTHmCw7XG146z//k538t8/1+dx0yy2+QnLg/vvaAw891I5+9FGbOqUJtXOl4TMfP92+cv5/u7Pjy8PKia/wPuJhD8Mv7FfCoe9YbpqUMh/itAveK0HbDzn8gXjHx+ONt0JOZ+LqQDmA2Njli/I8eWvx4Ycdaueed779GC88i9tQqcPAiO8befELn+cv2ir3U1kEeoVAZf3gBq4c4j8/8Oi/cOLpeqvWpPvKd99laa+ck+a5jRPg9eY777rbL2v0Y5mdmxB5iydvzducxOdB3IJfj3w7Izde0slu6hdop3Emy04n2yF7DpbKeQmC6T1ve/NGl9qjz3g53zmyAk/mvOOuu2wYl0n2w5M5pyJoGG/82STnpTBuPr0LL4HjQ7C4CXNjTxWdTeeuc+ldArfdca9PfvHCeZ7zx5J/WMNb7hVAOBYdRGDmE2h/J0P7jHn3xNFPfFrxS/fsMz/csiG0XV91ERABEdgYgU0FELoLY2P01CYCM4AAHyv93Bf/vZ18yqvsnC+cO+6MPnb2Z4rggbe5HlB6hsS4ndQgAiIgAptJQHsgNhOcuonA1iJwz733GW/fZOJjuP9w1VV4iNGJtv+++/q7PG5efqt9/VvfNj4zIdKz/uppU/60xhhLuQiIwLZJQJcwts3vXWfdQwT4pE0+e+G7P7hok7Pm5ryXvvD5uMvkZGzUw0VKJREQARHYTAKbuoShAGIzwaqbCGxtAt/ApYyvnP91rEbcNGZobmzibaP//LrX4N0LDx/TLoEIiIAIdEtAAUS3xKQvAjOcAJ9uyB39d+LR3NzJz70OvEOCd4goiYAIiMBkEdhUAKE9EJNFWnZEYCsR4Fsh+VESAREQgekkoLswppO+xhYBERABERCBHiWgAKJHvzhNWwREQAREQASmk4ACiOmkr7FFQAREQAREoEcJKIDo0S9O0xYBERABERCB6SSgAGI66WtsERABERABEehRAgogevSL07RFQAREQAREYDoJKICYTvoaWwREQAREQAR6lIACiB794jRtERABERABEZhOAgogppO+xhYBERABERCBHiWgAKJHvzhNWwREQAREQASmk4ACiOmkr7FFQAREQAREoEcJKIDo0S9O0xYBERABERCB6SSgAGI66WtsERABERABEehRAgogevSL07RFQAREQAREYDoJKICYTvoaWwREQAREQAR6lIACiB794jRtERABERABEZhOAgogppO+xhYBERABERCBHiWgAKJHvzhNWwREQAREQASmk4ACiOmkr7FFQAREQAREoEcJKIDo0S9O0xYBERABERCB6SSgAGI66WtsERABERABEehRAgogevSL07RFQAREQAREYDoJKICYTvoaWwREQAREQAR6lIACiB794jRtERABERABEZhOAgogppO+xhYBERABERCBHiWgAKJHvzhNWwREQAREQASmk4ACiOmkr7FFQAREQAREoEcJKIDo0S9O0xYBERABERCB6SSgAGI66WtsERABERABEehRAgogevSL07RFQAREQAREYDoJKICYTvoaWwREQAREQAR6lIACiB794jRtERABERABEZhOAgogppO+xhYBERABERCBHiWgAKJHvzhNWwREQAREQASmk4ACiOmkr7FFQAREQAREoEcJKIDo0S9O0xYBERABERCB6SSgAGI66WtsERABERABEehRAq0BRKVHz0LTFgEREAEREAER2DoEcqzQGkBsnaE1igiIgAiIgAiIQI8TUADR41+gpi8CIiACIiAC00FAAcR0UNeYIiACIiACItDjBBRA9PgXqOmLgAiIgAiIwHQQGDeA0H7K6fg6NKYIiIAIiIAIzDwCnWKCcQOImTd9zUgEREAEREAERGCmECgFEJ3ii5kyTc1DBERABERABERg5hCoWCmAmDnT0kxEQAREQAREQARmNoHxAwgtSMzsb06zEwEREAEREIGtRaBDTDB+ALG1JqVxREAEREAEREAEeo6AAoie+8o0YREQAREQARGYfgJjAogOqxTTP0vNQAREQAREQAREYNoJlGOEMQHEtM9OExABERABERABEZjxBBRAzPivSBMUAREQAREQgZlHIAUQ5TWJYo4dhUWrCiIgAiIgAiIgAtsKgbExgVYgtpXvXucpAiIgAiIgApNIQAHEJMKUKREQAREQARHYVggogNhWvmmdpwiIgAiIgAhMIoEigBh7dSONUq2mlnq9PonDypQIiIAIiIAIiMBMJRA+P2KA9nkyMigCiKKxFEm4QiWpjIwqgCgYqSACIiACIiACs5hA+PwqYoBSWGDlytgAog1IX19SGRoaaWtRVQREQAREQAREYDYSCJ8fMUCnc6xWKuXYolyGOqp9tRRAbBga7tRfMhEQAREQAREQgVlGIHy+xwBtoUEsQ3RcgSjr1koBxMjI6CxDpNMRAREQAREQAREoE6CvjwAiYgC2l2MD1jsGEGxIqWKNhtncgX6vrl03GA3KRUAEREAEREAEZiGB8PX0/YwBxoYO6aTzPRat7eXLGow4BgZqrr12/QYbGtZeiIRORxEQAREQARGYXQTo4+nrmej7y6sO5diADViBaDYXpaIACygzApk3b44bXLV6nec6iIAIiIAIiIAIzC4C4ePp8331oS0e4NmGqMMljGhqhdKHtYq+Ws1XIO5buaa1UTUREAEREAEREIGeJkDfzhUI+nr6/M6pKe8QQKQuTZWKxbLFvLn9xodKrB8cMgURndFKKgIiIAIiIAK9RoA+nb6dPp6+nin5/hQNNGOC5pl5ABEBQlMcHcuSVJ4/d04RRNx97yrtiRiLSBIREAEREAER6AkCXHGgL4/ggT6+U+oYJ+BWjQYvdNTTVsu84xKbHvBfyFhhc6OkM7hhyOJJVQtwrWTB/LnW15c2W3YaXDIREAEREAEREIGZQYC3avJui9gwyec9zJ0zgFWHND8GDKmcBHhoVN78EHJUUwDBYCE/qjrFDrCAoKKOSk4MHsoBBNtH0c6oJdIc3PLBz8BAnz+Aqlod9wpJdFEuAiIgAiIgAiIwxQT4bgv+6OcTJvmMh3jOA4edN3fAar7noRQceADRvHCR3omBdnbI4iKAQHiQAoRSAAFRcxWCAQT6NYOIHFwg46QG9aRKYlUSAREQAREQgZ4gwOc8lJ80GZcpfPWBZ5CWIKxl9cHlbMKNFWPOkpFFjg0YZTDe8KAhy9kpBREhwL2gtYotnJ9u+WAwMTo66oFHeQVjzDgSiIAIiIAIiIAIbBUCXEFgIFDjHRa4XMHYwLcp0JV7SoUIIopVBioWOlAslVMAwfZGUmJwwPbWI617KOGxRRqAKxaUI4DwoCKtTnAZpFatFW1sT2o4RmBSyNiKFIZSrayWJaWsZKMk7bqY1lO67qYOIiACIiACItCRQF7g79jWlbDkpNv7jWmig8+pWYLAK60zSqrNRQBfWYi+0I/gIdkpH6nUtEU9/hm7ApGNlTMql1ch3JTLWMoenYPjTyR30M0maFEBghZZ1uZZuTw1Nq0U6mGWg4xN2ebYhvEl5bmOr6UWERABERABEZhCAp18WttwnVUgLTWUilne5uWoTl8bndo6RPDgQ+e2FlnbnFgdE0B4sEB3D6ccTp9lrndwoQDH5OtdFJFMmlLTj3OpBP05iRCic9gLWczfVbySJaUVidCBpejGYmsqK7W2bLoW89u0pjREQAREQAREYCyBLfFBY625ZFyTHgQ0O43Rc0EKHooAALKk19Rulujem7XQo8zL+RDlsm4fheHAeRnD3bwHC2M9Kzu2rCy4Rd5pASmcPudQ8v0+eFiJybQHEcRQzIEVJjfEQvRmOQCkcmtLkm3W0c9hs3qqkwiIgAiIgAhMGoGNuyO0tim0VXN728oDZteuRxfLlIIB6JcVUC4HCUkzHUPuI0BvzApEoUwj8NLh8OPqQ6WCgAG3fIYDj6AhDLNHCiI4I2jlLOyySmEjDOaGJPceSeKCLPXBYsRSc+67say118Y01SYCIiACIiACk08g/Fv3ltGzQ+cOItcbGzpgxEI5Feizm/6a5easWHQfH928LVst6UWP/w+p979sFGg8HQAAAABJRU5ErkJggg==;" vertex="1" parent="1">
          <mxGeometry x="410" y="640" width="108" height="67.91" as="geometry" />
        </mxCell>
        <mxCell id="3g_RbRhQAXuC4bDT2nws-7" value="" style="shape=image;verticalLabelPosition=bottom;labelBackgroundColor=#ffffff;verticalAlign=top;aspect=fixed;imageAspect=0;image=data:image/png,iVBORw0KGgoAAAANSUhEUgAAAhIAAAFECAYAAAByAtfIAAAK2WlDQ1BJQ0MgUHJvZmlsZQAASImVlwdUk1kWx9/3pTdaINIJvSOdAAIJPRRBOohKSAIJJYaEoCJ2BkdwLIiIgDqioyIKjo6AjAWxYBsU7HWCiIK6DhZsqNkvsISZ2bO7Z+85L+93bt67795Xzvl/AFDCOWJxHqwBQL6oUBIXFkhPSU2j4wYBCpAAHmABncOVilmxsVEAscn+r/b+FoCU/XVHZax///+/mhaPL+UCAKUjnMmTcvMR7kTac65YUggA6gDiN19QKFbyNYS1JUiCCD9RcvYEf1Ry5jijyeNjEuKCEKYDgCdzOJJsAMgOiJ9exM1G4pCVNTiLeEIRwiUI+3MFHB7CxxF2yM+fr+QhhG2Q8WIAKMjuAEbmn2Jm/yV+pio+h5Ot4om6xg0fLJSK8ziL/s+t+d+WnyebXMMKaWSBJDxOuR6yf3dy50eqWJQ5M2aShbyJnJQskIUnTjJXGpQ2yTxOcKRqbt7MqEnOEoayVXEK2QmTzJeGxE+yZH6caq0sSRBrkjmS8XWJCMtluYkqv4DPVsUvFiQkT3KRMGnmJEtz4yOnxgSp/BJZnCp/vigscGrdUFXt+dI/1Stkq+YWChLCVbVzpvLni1hTMaUpqtx4/OCQqTGJqvHiwkDVWuK8WNV4fl6Yyi8tilfNLUQu59TcWNUe5nAiYicZCEE04AAuXX2SACjkLyxUFhI0X7xIIswWFNJZyGvj09kirpMD3dXZ1QUA5duduA5vaeNvEqJdmvKtwQHA9FMoFMemfKHIebRsQ47lyZTP+hwAGsh9urCBK5MUTfjQyh8McnrqQBvoAWNgDmyAI3AFnsAXMEEIiAAxIAGkgrlIrgKQDyRgASgBK0AZqAAbwGZQC3aAXWAfOAgOgzZwHJwG58FlcA3cBPeBHAyCF2AEvAdjEAThIApEhfQgE8gSsodcIQbkD4VAUVAclAplQNmQCJJBJdAqqAKqhGqhnVAj9DN0DDoNXYR6obtQPzQMvYE+wyiYDGvDRrAVPB1mwCw4Ek6A58DZcAFcDJfC6+AauAE+ALfCp+HL8E1YDr+AR1EARULRUKYoRxQDFYSKQaWhslAS1FJUOaoa1YBqRnWgulHXUXLUS9QnNBZNRdPRjmhfdDg6Ec1FF6CXoteia9H70K3os+jr6H70CPobhoIxxNhjfDBsTAomG7MAU4apxuzBHMWcw9zEDGLeY7FYGtYa64UNx6Zic7CLsWux27At2E5sL3YAO4rD4fRw9jg/XAyOgyvEleG24g7gTuH6cIO4j3gS3gTvig/Fp+FF+JX4avx+/El8H/4ZfoygQbAk+BBiCDzCIsJ6wm5CB+EqYZAwRtQkWhP9iAnEHOIKYg2xmXiO+ID4lkQimZG8SbNIQtJyUg3pEOkCqZ/0iaxFtiMHkdPJMvI68l5yJ/ku+S2FQrGiMClplELKOkoj5QzlEeWjGlXNSY2txlNbplan1qrWp/ZKnaBuqc5Sn6terF6tfkT9qvpLDYKGlUaQBkdjqUadxjGN2xqjmlRNF80YzXzNtZr7NS9qDmnhtKy0QrR4WqVau7TOaA1QUVRzahCVS11F3U09Rx3Uxmpba7O1c7QrtA9q92iP6GjpuOsk6SzUqdM5oSOnoWhWNDYtj7aedph2i/Z5mtE01jT+tDXTmqf1Tfuga6DL1OXrluu26N7U/axH1wvRy9XbqNem91AfrW+nP0t/gf52/XP6Lw20DXwNuAblBocN7hnChnaGcYaLDXcZXjEcNTI2CjMSG201OmP00phmzDTOMa4yPmk8bEI18TcRmlSZnDJ5Ttehs+h59Br6WfqIqaFpuKnMdKdpj+mYmbVZotlKsxazh+ZEc4Z5lnmVeZf5iIWJRbRFiUWTxT1LgiXDUmC5xbLb8oOVtVWy1WqrNqsha11rtnWxdZP1AxuKTYBNgU2DzQ1brC3DNtd2m+01O9jOw05gV2d31R6297QX2m+z73XAOHg7iBwaHG47kh1ZjkWOTY79TjSnKKeVTm1Or6ZbTE+bvnF69/Rvzh7Oec67ne+7aLlEuKx06XB542rnynWtc73hRnELdVvm1u722t3ene++3f2OB9Uj2mO1R5fHV08vT4lns+ewl4VXhle9122GNiOWsZZxwRvjHei9zPu49ycfT59Cn8M+f/g6+ub67vcdmmE9gz9j94wBPzM/jt9OP7k/3T/D/0d/eYBpACegIeAx05zJY+5hPmPZsnJYB1ivAp0DJYFHAz8E+QQtCeoMRgWHBZcH94RohSSG1IY8CjULzQ5tCh0J8whbHNYZjgmPDN8YfpttxOayG9kjEV4RSyLORpIj4yNrIx9H2UVJojqi4eiI6E3RD2ZazhTNbIsBMeyYTTEPY61jC2J/nYWdFTurbtbTOJe4krjueGr8vPj98e8TAhPWJ9xPtEmUJXYlqSelJzUmfUgOTq5MlqdMT1mScjlVP1WY2p6GS0tK25M2Ojtk9ubZg+ke6WXpt+ZYz1k45+Jc/bl5c0/MU5/HmXckA5ORnLE/4wsnhtPAGc1kZ9ZnjnCDuFu4L3hMXhVvmO/Hr+Q/y/LLqswayvbL3pQ9LAgQVAteCoOEtcLXOeE5O3I+5Mbk7s1V5CXnteTj8zPyj4m0RLmis/ON5y+c3yu2F5eJ5QU+BZsLRiSRkj1SSDpH2l6ojYikKzIb2Xey/iL/orqijwuSFhxZqLlQtPDKIrtFaxY9Kw4t/mkxejF3cVeJacmKkv4lrCU7l0JLM5d2LTNfVrpscHnY8n0riCtyV/y20nll5cp3q5JXdZQalS4vHfgu7LumMrUySdnt1b6rd3yP/l74fc8atzVb13wr55VfqnCuqK74spa79tIPLj/U/KBYl7WuZ73n+u0bsBtEG25tDNi4r1KzsrhyYFP0ptYqelV51bvN8zZfrHav3rGFuEW2RV4TVdO+1WLrhq1fagW1N+sC61rqDevX1H/YxtvWt525vXmH0Y6KHZ9/FP54Z2fYztYGq4bqXdhdRbue7k7a3f0T46fGPfp7KvZ83SvaK98Xt+9so1dj437D/eub4CZZ0/CB9APXDgYfbG92bN7ZQmupOAQOyQ49/znj51uHIw93HWEcaf7F8pf6o9Sj5a1Q66LWkTZBm7w9tb33WMSxrg7fjqO/Ov2697jp8boTOifWnySeLD2pOFV8arRT3PnydPbpga55XffPpJy5cXbW2Z5zkecunA89f6ab1X3qgt+F4xd9Lh67xLjUdtnzcusVjytHf/P47WiPZ0/rVa+r7de8r3X0zug92RfQd/p68PXzN9g3Lt+cebP3VuKtO7fTb8vv8O4M3c27+/pe0b2x+8sfYB6UP9R4WP3I8FHD77a/t8g95Sf6g/uvPI5/fH+AO/DiifTJl8HSp5Sn1c9MnjUOuQ4dHw4dvvZ89vPBF+IXYy/L/qH5j/pXNq9++YP5x5WRlJHB15LXijdr3+q93fvO/V3XaOzoo/f578c+lH/U+7jvE+NT9+fkz8/GFnzBfan5avu141vktweKfIVCzJFwxqUACmlwVhYAb/Yi2jgVACqiy4mzJ7T1uEET3wPjBP4TT+jvcfMEoBnplLKI2QnAESYiZ5GmhrBSEiUwAezmpmr/MmmWm+tELDKiLDEfFYq3RgDgOgD4KlEoxrYpFF93I8neBaCzYELTKw2LaPlmg+S8MIfrfV1y8Deb0Pt/qvHvPVBm4A7+3v8TXswacbfBLcAAAACEZVhJZk1NACoAAAAIAAYBBgADAAAAAQACAAABEgADAAAAAQABAAABGgAFAAAAAQAAAFYBGwAFAAAAAQAAAF4BKAADAAAAAQACAACHaQAEAAAAAQAAAGYAAAAAAAAAkAAAAAEAAACQAAAAAQACoAIABAAAAAEAAAISoAMABAAAAAEAAAFEAAAAAGlLTPMAAAAJcEhZcwAAFiUAABYlAUlSJPAAAAJvaVRYdFhNTDpjb20uYWRvYmUueG1wAAAAAAA8eDp4bXBtZXRhIHhtbG5zOng9ImFkb2JlOm5zOm1ldGEvIiB4OnhtcHRrPSJYTVAgQ29yZSA2LjAuMCI+CiAgIDxyZGY6UkRGIHhtbG5zOnJkZj0iaHR0cDovL3d3dy53My5vcmcvMTk5OS8wMi8yMi1yZGYtc3ludGF4LW5zIyI+CiAgICAgIDxyZGY6RGVzY3JpcHRpb24gcmRmOmFib3V0PSIiCiAgICAgICAgICAgIHhtbG5zOnRpZmY9Imh0dHA6Ly9ucy5hZG9iZS5jb20vdGlmZi8xLjAvIj4KICAgICAgICAgPHRpZmY6UmVzb2x1dGlvblVuaXQ+MjwvdGlmZjpSZXNvbHV0aW9uVW5pdD4KICAgICAgICAgPHRpZmY6WFJlc29sdXRpb24+MTQ0PC90aWZmOlhSZXNvbHV0aW9uPgogICAgICAgICA8dGlmZjpZUmVzb2x1dGlvbj4xNDQ8L3RpZmY6WVJlc29sdXRpb24+CiAgICAgICAgIDx0aWZmOk9yaWVudGF0aW9uPjE8L3RpZmY6T3JpZW50YXRpb24+CiAgICAgICAgIDx0aWZmOkNvbXByZXNzaW9uPjE8L3RpZmY6Q29tcHJlc3Npb24+CiAgICAgICAgIDx0aWZmOlBob3RvbWV0cmljSW50ZXJwcmV0YXRpb24+MjwvdGlmZjpQaG90b21ldHJpY0ludGVycHJldGF0aW9uPgogICAgICA8L3JkZjpEZXNjcmlwdGlvbj4KICAgPC9yZGY6UkRGPgo8L3g6eG1wbWV0YT4KYLX8JAAAQABJREFUeAHtnQWAXcX1xs+T3c0mIQlJiKHBXYoV1wZpS+FfWiil0FK8WEtwl5bipaUtLdAWl2DB3YKFIEHiIdm422b9yf7PN/fN3ft039u9K2/fN3D32tyR393sfPfMmZlAswbxKSSn5FuyPpWOyZAACZAACZBAKRMIuJUPtBy619p6EG7rg/Y5Kx6am+PS0BiRpqaoRKJRicXjEo9TTFhO3JMACZAACZBAVxEIBgMSCgalLByW8vKw9Kook0AgaIrTXlERaKtFwhEQzRKNxqS2rlHqGhq7ig/zJQESIAESIAESKJBA714V0qd3hYTDIX0yoMKiwAQS0QsWElZA4Pm1tQ1SU1vv5lxRXibYoHbCoaAEVf0wkAAJkAAJkAAJdC2BuPYSRGNx02vQ2BQRbDb07VMp6/TplTgtXFAUJCSsiIAVYnV1rXZhxEzGfSqhanolVI0tGvckQAIkQAIkQALdkYDTm9AgtfVOb0KZWiUG9OvTJutE3kLCigj4QKyqrjH+D+VlYem3Tm/BnoEESIAESIAESKC4CDRFolK9tk6whx/Fuv36ml6FQro68hISdmAHFMyK1WuNiKjsVS7r9u9bXMRYWhIgARIgARIggTQCq9bUSH1DkxETgwas4/YwBPJwnGjVicGxRIhgj+4MjMSgiEh7B7xAAiRAAiRAAkVLAIYBtO1o49HWe9v+1iqVU0jY7gzsa+oajE8EujFoiWgNK++TAAmQAAmQQHERQNuONh7+j2jzvRogV02yCgk3AX0aXRp2dAZ8IhhIgARIgARIgAR6HgHbxqPNR9vvzAbV7FooMtU4q5DQzgwnvu7qEl6dGJ1Bx8pMGHmNBEiABEiABIqfANp4tPUIpu1PSAFXE2SoYkYh4VgjHL+IuM5YaSebwhBPBhIgARIgARIggZ5LwLb1aPuhAbyaIFOtMwqJFuXRrJNXOJNWYKIpZ/arTMnwGgmQAAmQAAmQQE8ggLYebT6CowGsWcLuk2uZJiS8ygPHjU3OpFM20eTHeUYCJEACJEACJNDTCNg2HxoAWsCrDVLrmiYkUiNEdQEuBEx7zUACJEACJEACJNDzCdg232qAXDXOICTUO9M8gX2zWcUTp1g7g4EESIAESIAESKDnE7BtPlbydlRBizZIrX2SOnB7P6wZQ/d2KXAuwJWKjuckQAIkQAIk0DMJ2DbfaACPJkBtXa2QqHqSkEi9mxq5Z+JirUiABEiABEiABLIRSNMCKReShYSbSkos9zoPSIAESIAESIAESpNAZm2QRUjAdKEPWDfN0iTGWpMACZAACZAACagWsB4SmWCkCInMaiPTg7xGAiRAAiRAAiRQigSStUKKkChFIKwzCZAACZAACZBAWwmkCQnoDKM1kgVHW9PncyRAAiRAAiRAAsVOQDWBqw9S6pImJLz3qSW8NHhMAiRAAiRAAqVHoDUtkFNIlB4u1pgESIAESIAESKAQAhQShdBiXBIgARIgARIggSQCFBJJOHhCAiRAAiRAAiRQCAEKiUJoMS4JkAAJkAAJkEASAQqJJBw8IQESIAESIAESKIQAhUQhtBiXBEiABEiABEggiQCFRBIOnpAACZAACZAACRRCgEKiEFqMSwIkQAIkQAIkkESAQiIJB09IgARIgARIgAQKIUAhUQgtxiUBEiABEiABEkgiQCGRhIMnJEACJEACJEAChRCgkCiEFuOSAAmQAAmQAAkkEaCQSMLBExIgARIgARIggUIIUEgUQotxSYAESIAESIAEkghQSCTh4AkJkAAJkAAJkEAhBCgkCqHFuCRAAiRAAiRAAkkEKCSScPCEBEiABEiABEigEAIUEoXQYlwSIAESIAESIIEkAhQSSTh4QgIkQAIkQAIkUAgBColCaDEuCZAACZAACZBAEgEKiSQcPCEBEiABEiABEiiEAIVEIbQYlwRIgARIgARIIIkAhUQSDp6QAAmQAAmQAAkUQoBCohBajEsCJEACJEACJJBEgEIiCQdPSIAESIAESIAECiFAIVEILcYlARIgARIgARJIIkAhkYSDJyRAAiRAAiRAAoUQoJAohBbjkgAJkAAJkAAJJBGgkEjCwRMSIAESIAESIIFCCFBIFEKLcUmABEiABEiABJIIUEgk4eAJCZAACZAACZBAIQQoJAqhxbgkQAIkQAIkQAJJBCgkknDwhARIgARIgARIoBACFBKF0GJcEiABEiABEiCBJAIUEkk4eEICJEACJEACJFAIAQqJQmgxLgmQAAmQAAmQQBIBCokkHDwhARIgARIgARIohACFRCG0GJcESIAESIAESCCJAIVEEg6ekAAJkAAJkAAJFEKAQqIQWoxLAiRAAiRAAiSQRIBCIgkHT0iABEiABEiABAohQCFRCC3GJQESIAESIAESSCJAIZGEgyckQAIkQAIkQAKFEKCQKIQW45IACZAACZAACSQRoJBIwsETEiABEiABEiCBQghQSBRCi3FJgARIgARIgASSCFBIJOHgCQmQAAmQAAmQQCEEKCQKocW4JEACJEACJEACSQQoJJJw8IQESIAESIAESKAQAhQShdBiXBIgARIgARIggSQCFBJJOHhCAiRAAiRAAiRQCAEKiUJoMS4JlDiBWLzZEJi9rEGWVkdKnAarTwIkAAIUEvw9IAESyIsAREQoGJC3pqyWa8fOk74VIWl2dEVezzMSCZBAzyRAIdEz3ytrRQK+EognRMQjnyyTH9w1S47ZdZD0rghSSPhKmYmRQHESoJAozvfGUpNApxCwFoegWiJufGmBnPjIctl9w3I5epeBRkQE+RekU94DMyGB7kwg3J0Lx7KRAAl0HQG4Q6h+kIZITE5/qEoe+qxGAqosRh+2oSmUsVKENAIDCZBASROgkCjp18/Kk0BmAtYfYv6qRjnhvlkybnZEQs1R2XJwQH6y80DzUChFRMB6EaCuyAyUV0mgBxOgkOjBL5dVI4G2ELAiYsLstXLcvbNl9upm6dVcJ43BvnLeIetJeTgg8bhaK1K6NSgi2kKbz5BA8RNI+VNQ/BViDUiABNpOwDpVPjFhuRx85wyZvTIi5fF6aYyXyYZ9m+TE7w8xiaeKCFycsrBOBQaHcbSdPp8kgeIkQCFRnO+NpSYBXwl4nSr/9PICOf7+uVLbEJVQrNFYHyRcIWfuP1T69gpKJq0AK8Zx/5ou701fa8pFQeHr62FiJNCtCVBIdOvXw8KRQMcTQKOPbommaFxOfWC2XPHSSvWHaFLHypjoHYkFgjKovEFOUyGBAAdMG6xg+KyqVr5ZUabzS8zhkFALh3sSKBECFBIl8qJZTRLIRACWBAztXLS6UQ77yzS5/9NaKYvWmi4KdYMwE1A1h3vLb/cZIoPXKXOsE0kJBVRsiDw6frkEm+Myriqqx8tMmlZkJEXnCQmQQI8jQCHR414pK0QC+RGwTpVfzKmR/W+bLu/OalIRsVaiKi4gDvDHIaY/1wnVy9kHDTOJpjpUwleitjEuz3yxXOKRepF4VK58br5U10XVyuExXeRXJMYiARIoQgIUEkX40lhkEmgvgVjMme762S9XykF3TJeZyyNSFquTiJohICIgAdCFEQ9Xyi92HSgbDaowVgqvNkAaCG9OXi3za8ISUtkRlqhUrS2T215bYLpLaJUwiPiDBHo0AQqJHv16WTkSSCZgnSoxB8Stry6Q/7tnllTXRyTc3GhEBISCs+kQT5UTFdIg5/9geHIiiTPEg5R4TLs1AsGQeQ7aIqSC5M63l8msZY2mi8PmmTERXiQBEih6AhQSRf8KWQESyI8A5n5A4x+JxeWsh2fLxc+vMFaEkEoG9bM0VgijDFQMONaI3vKTHfrJtiN6G2sEfClsaFZ1gPMlayLymlokRLs1kL7JQ500a2LlctnTVSY64jKQAAn0XAIUEj333bJmJOAScJwqRZbXRORHd8+Uez5Wp8p4nY6wiAusCC0SwXkkDqEQb5Q/jBrhpuE9gGBAGDtxpayJVkoogBEemo7+RVGdImG1SoyZWCNvT1lDx0tDij9IoOcSoJDoue+WNSMBQ8A6VX49v072u2WqvD6twXGqVAWhfpVGRFibAfZYKhwjNQ7dsrfsuek6icW5kqUGrBGI+/in2q2hFg2kYtLQH2aPnFVVXDSmSqJQFgwkQAI9lgCFRI99tawYCThdDRAGL37lOFVOXQqnylrjD4F+DsgD2/Bjb87RFRGPyYWj1jcIU7smcBtdJNMW1stHs2pFos6MljYt7I14iTXIl4uDct+4pQmrhEmOP0iABHoYAQqJHvZCWR0SAAE09o4fg8hf3lwkR/1zlqysaZJQvMFxqkxEgnhAQOOPTTWHxEOVsueGYfnBdv0TaeBOS0C3B8KTX6yQpmBvCauqwBWblj3GZFYB7R657sUFsqIGw0GdMpmH+YMESKDHEKCQ6DGvkhUhAYeAnakSDfq5j86W3z+zTBv0qE4YFVV/CMcKgZi24Xee8v4MyB8OW18bfhUIGj81wMIR0W6RMboeRyDepN0jzrwT3nh4yvGziMji+gq58YV5CSGRnp73OR6TAAkUHwEKieJ7ZywxCWQl4DhVBtQCEJGj7p4hd39YaxwfYZ3AcE7bjHtFhLmmPxxrRIVsOySuS4Wva/JIXZzLzgsxfnaNTFqi4iTWpIKkJV1vwZAH8gzpTJn3fLhSvl1Qp10csEp4Y/GYBEig2AlQSBT7G2T5SSBBwDpVYhXOA26bKi9NaTROlbiOthuCAfuM7bheNIIiWCbnHzJClwoPip1wKpF8YpdwstS5IyTcy4gPiJTUNHFu8tN7eKIhHpaLx8w2aaT6XCSnzzMSIIFiI0AhUWxvjOUlgQwEMPoCXQ6vfbtK9r99ukxaHDVOlZgfwm3UMzxnxUVQuzFiKiI20qXCT9hzPRMTk1alBlgUahpi8tzEFTp3RINxqkT6mQKuY4OQCcfq5dVpTfK8zqSJER/WspHpOV4jARIoLgIUEsX1vlhaEkgigG4CbOiWuOfdxfLDu7+T5WubJGycKpMtEUkPek4gF/C8hHrJ2QcOkz4Vao2AMkkJdu6INyavkQVmSuyomh0yd2vYR5GssVgkCnrps3OlQefh5joclhD3JFD8BCgkiv8dsgYlSsA6VWI0xOgxc+WsJ5dKsw7bxJoXUdUBaMRNQ56DD+SCsUYEwrJer0b57X5DTGxYN1ID8kH8Rz9R502dEhtnmbo1vM8hfgAWCD0I6QiOqSvC8re3FhvHS1olvKR4TALFS4BConjfHUtewgRgMUAXwRpdZfPov0+X29+tNk6VqiScmSoTOgANebaAKNigGeJqjfjt3oNlUN9MS4U7VgUIiUWrm+QNna3STomdK303X42EePCWCKql5M+vLZKFmo4RJrBUMJAACRQ1AQqJon59LHwpEoCIgMVgxuJ6OfD2aTJ2cotTpTPHpFJJNN65+KAJh5DAUuH9glgq3FmcKxBIb9xtT8fYiaukOu6ZEjtXBol7Nh8MBw3EIrKyqVyu1i4OZ3hpHgkwCgmQQLcmQCHRrV8PC0cCyQSsiHhLF8raV0dmTFzYpCMzapKW/0bDnS4FktOBgMDmWCMq5YQ9BsoGA8uNE2Qm/wXEQ5qPjdduDV2Uy3m69Xw0ogm2TKaLQ4eDPjBhjXw6q4aOlxYQ9yRQxAQoJIr45bHopUPAOizCEnHfuCVy5N9nydLqqHZnJGaq1IYewqA1AWGJIR66FuK6HoZZKvzQzItzIT56HyAupuiU2J9U1Ukg2pBxEiqbdra9LR+Gg0abQzL6yVkmaibhki0NXicBEuh+BCgkut87YYlIIImA41SpoyO0Mb/06bly2qOLJdKk011L1HWqhILIV0SgQccGUYLpsI/esZ9sPbzSWCPgd5Ea7JTYYz5bIRGdEhujQo24SI3YyjnKh82sDqq+Eh/MbVbHTZ0dU9Oj42Ur8HibBLoxAQqJbvxyWDQSQIONxr2mISo/u2eG3Py2OlXG67XxbXaX/7YNdL60EB+iBBNOhZqb5EKdDjtXgOAwU2J/ljwlNtIpNFiZAgsLukiuUF+JtTovBcqDawwkQALFR4BCovjeGUtcIgRMY6st76xlDXLwHTPkqW/gVFlj5niArwEa5UKbXjyDDeKgubyPjNqqt+w+sq+xMGS0RiS8LD/+bq1MXqpumTmmxM7ntaC82JBsMNYoc2rK5dZXFxirBHVEPgQZhwS6HwEKie73TlgiEjANO5r8pdUROej2KTJhPpwq10pUW2A0xG0REQYrHtRguhJiUfnDKMc3Ilcjjvwe/xRTYlcY50zjr2FSadsPW3ZHTNTLnW8vk++WNhjLC60SbWPKp0igKwlQSHQlfeZNAlkIWGvE1c/Nlblry6U8Xqciwvmatw1xlkdzX1ZVYHwjdJ2MvTYKyyHb2KXCMz9mulXqYzJ24kppbqo3lgQIi/YEK4TMcFBdlbQmWqa+H1UmyVyCpj158lkSIIGOI0Ah0XFsmTIJtIkAGlM04F/MqZX/fLJaV8+sURGBsQ7tsEQknkWBzFe/JpZrqXDEs4t2vaZDTRfWlhnnTtP442Y7A+qC/gx109D61cnTX9XKO1PXcDhoO7nycRLoCgIUEl1BnXmSQA4C1rx/ka6WGWkOazeGMxV1uywRmh8ab9UnZhbL7YY0y1E7DzSiInWpcFs0iBk8Y+aO0EhB3YwAsBHaubf1wagNCYTkoifnSBTKgoEESKCoCFBIFNXrYmF7OgH4LqABHzNhubz9XcyM0MAkVGhe29PEmrZa0zCNtq6TccGh60uZjuPMNuzSdq0sWqVTYk+u1imx69TJUxfbamc5vO8P9UF6ZpItXR30i8UBuV/nyED9s5XL+zyPSYAEugcBConu8R5YChIwBDAMsq4pLpc/N1+HR0aN06Vp1NvJB422szhXuWy8TkR+scdgk2IolPlPABwhEZ5V34i18V7arRF3yuJc9vUnssI6HAFd1OuaF+bLipqoGQ7qayZMjARIoMMIZP4r0mHZMWESIIFsBPAVDovBHa8vlJmrw7paZpOZQdLMsZDtoTyuu9YI2DRC5XLOwcOlty4VnuurH10gaOAfx5TYKiJQsIS2yCPH/KMgTZQPvhfBeESWNPSSG1+cZzjkKl/+OTAmCZBARxOgkOhowkyfBPIgAAdLiIi5Kxvl1jeWSEhN/fhK96Xx1oTtUuFDdKnw3+ztLBWOLoRMwSlLQCYtqJPxc3Tyq2ijGa2ROXamFAq7hjpiw4JjcLz857gVMkmn4zY+Gr4AKKw8jE0CJFAYAQqJwngxNgl0CAHHJyEglz89R6oj5aZbw46QaE9bisa/GX4XetAcrpTT9h0iA/uG1RqRvRqwBCDPlimxHWfP9pQje27OHZQTZdJxHNLYXCajn5htbljH09ae530SIIGuI0Ah0XXsmTMJGAJouPH1/cGMannsixpdiKtOLQCONaLdjbe20BARWCq8vy4VfuaBw0yemZYKt68jpE6YEZ204kl1+AzoTJZaPH8sIzaDDHvUU9cPc9bhUGvMq9Ob5IWvVtLxMgMrXiKB7kaAQqK7vRGWp+QIwAcCYmL0k1Vq3se3ectwz/bAMCnpV74zAVWlnPj9QbL+utmXCkde1i/hw5lrZeoylR/WT6M9Bcn3WY9qCjTH5eIxc6UxksN0km+6jEcCJNChBCgkOhQvEyeB3ATQcMM34oGPlsr4BQGzLLgfwz1NrvCNwFe+WjcqA41y3iHOdNgQLlmD3kJ7/sSEFRLQ2S+tG4Wnjc/6aHtvIA9sZjiojuCYuiosf3trUcIq0d7U+TwJkEBHEaCQ6CiyTJcEWiFg/SJW10blqrHzzde/bUxzNPWtpOrcxvPN6nSAf+DxcG85RpcK33JYL2NxyKUj4JRZXReVsV+ukOaIP1Ni51XgRCRTbpRdLTPBaL3c9NoSWbi6ScUWrDSFpMS4JEACnUWAQqKzSDMfEkghYEdq3PTyfFlQpwtimW4EZzhke9tMPI+ZKNFVEpZGnQ7bsUakFCHp1DpgvjZ5jSyuL5dwIGaGZbZX1CRl0soJyo38zHBQicrKpjK56tk5KiTUZ6S9UFrJm7dJgATaRoBCom3c+BQJtIsArBFwsJy2uF7+9t5yHe4JB0vHtN/e9hINMTZ0S8RDlTJqy96y68bZlwpvqYgzWsOZElsniNLnUZb2lqcl/fyObJ5wOA1Fa+XBCdUyYXaN6aahmMiPIWORQGcSoJDoTNrMiwQSBGyDeMlTVVIf1+Ge8ZhpsCEA2hvQENsv+KCO1xh9+AYmSZtnpvStsFmgU2K/OQVTYtebRbv8KE+m/Fq7hnxN14/uo80huVAdURlIgAS6JwEKie75XliqHkzADvd8XVfVHPttvfnqxlpV9ku8PVVHA4zNWCPMUuFlctDW/Uy3ABwvswVYQxCe/XKl1DRXOlNiO5e65KdlAcfLcLxexs2Jy6OYZVMrZ0eWdEnBmCkJkEAagRx/WtLi8gIJkIBPBJp0nobRT1QZy4GxHmi6EAC+Bu0aGH34+ibJXNYIRIDwQONtpsRujsGk4YuwMZm38Qd4GEGh9QjquiNXPDtfahpjhlkbk+RjJEACHUCAQqIDoDJJEshGwFoj/vXeYvlmua6nEWswwx1to5ntuXyu2zQgCmLBCtlR55760Y7rmi6CXNYIiAyIGUyJ/amZErvBGd2RT6YdGAciAnUyjpexRqlaWya3vKKLmelFWiU6EDyTJoECCVBIFAiM0UmgPQTQYC+tjsj1Ly6UoJ/raSQKhYYXDa0EsFT4CAmbpcJzlxgNNRrtBz5aJtFQHwlhqGXuRzr3LoSDFgjrj9z59nKZtazBOKq2ZmXp3EIyNxIoXQIUEqX77lnzTiaAr2g08tc9P0+WN2K4Z8R8baPd96PhRhp2qfCR/SPy890GmhpiyutcAc8gxr5brKPipkGaVYTYMuV+Mleq/twzXPQH9lhWvSZaJpfpeiQIcMZkIAES6HoCFBJd/w5YghIggDYPwz0nzq2Vez9a6Qz31OYaTaEfzSEafGdTa4IuFf67g7BUeMiMvGgNL8QNyveTnQfKnccOl2hQnS1VfCA9lA37rg4oRwzTfevqoGO+qpV3p1Ubnuzi6Oo3w/xJQP+2EQIJkEDHE7BfzxeNqZKIrm6pq2uYxtuvRhoNrV0qfGhFo5yiq3witGaNMJH0B8QERkicq90h5+/XVyLhvhLWvw6mfPrDr3La/ArZWzFj9qYgQbMuCcqLriIGEiCBriVAIdG1/Jl7CRCwDpbPfLFC3pwZMcMZ8XWNhhFbewOaUmxm5IUuFX76/kNlQO9wXtYIb95Y3AtLjt/5i5Hywy3DRkwYfwnbknsjd/KxLYJZh0N9JT5fJHLf+0uMAKJVopNfBrMjgRQCFBIpQHhKAn4TwFdznQ5bvPTpudrPD0uEIx/8+pZ2G1k1MA4IN8qZBww1VUBXSqHBfOBr+R4+dQvZQY0a6OYIazIocuGpFZp77viop90wnfg1LyyQFTURY5WwTHOnwLskQAIdQYBCoiOoMk0SSBDA+hVonP/y5kKZsbpMQrqqpX70uw1ie0GhccfmLhW+50AZYZYKd/ItNH2IHoiGAb1D8sxZm8uQvgGJBbTcmgkaceTVlQH5gx8cVZc0VMiNLzrDQRParCuLxrxJoGQJUEiU7KtnxTuagPmK16GU81c2yS2vLzXDF62I8KtBto07lgqvaG7QpcJ18ggNxrLQxgrCkoFybj6kUh4/daTjZ6EjOUzXCdJuY7p+PIb6YkP54Hj5j/eXm/kvTJlxkYEESKDTCVBIdDpyZlgqBBwhEZDLn6mSNVFdT0OHL6KpQ0PsR5OHdLA51ojecuwu/WWLoZWtLhWuj7QaIBrgj3DQ1v3lnl+sL7FQheYTNA6dtg6tJtJBEVBnaIaAzsDZJOUCB1YGEiCBriNAIdF17JlzDyYAEYHZJD/+bq088tlas54GVrNEI4zNl6BmB1gesE5HKN4gFx7mTIftS9qaCAQKxMQp+w2Tyw4ZIJFQX9PFgYYcdcC+K4Lhl6h3WB0vX5nWJC9+tYrDQbviZTBPElACFBL8NSCBDiAA5z+ICaxaGQ8EHSuEXvCr8TWNuTpgwHIQ15Eah2/TR3bZqI/Jsy1OltkQGGuHiok//nRjOXYHjOTo4w4L7UoxYeqfKDSG0l6sq6g2RNQhhYEESKDTCVBIdDpyZtjTCdjhng99vFQ+nofVK531NNDwmq9pnwBYx0gsQX6Ru1S4nzk4BYVYQcH/95vNZY/1gxLBhFWJa8gNh50dbL7OcNBGmbIyLH9/ezGtEp39IpgfCSgBCgn+GpCAzwTQwFfXx+TK5+brqpURtRI4Ta2vDa4mZn0j9tmkTA7YCkuFN5uG1OfqmOGVSLOPzpT51Jmby4i+zRLFSA796+FrndpQcAgK+Etgau8/vrxQFq5uMt09HA7aBph8hATaSIBCoo3g+BgJZCIAawT8Fv788nyZV1uuDVyTNnTOIlho9PwIpvHWxJzuk2a1RuS3VHh78kadMJR1w4EVMuaMzaSyLKStd7hLR3KAJ1iY1UHjUVkVrZCrnp1jhA+6lRhIgAQ6hwCFROdwZi4lQACNF/wTZixpkLveWe6up4HWzjT+PjFAG2l8I0K9ZCede+rIHexS4X7mkl5YOI/G1LNz7837yX9O2kDnlwhro42RHF3nfGn0gqoceEeEorXywKfVMqGqhl0c6a+PV0igwwhQSHQYWiZcagSsOf3Sp6ukLq7raejwRHwtw7/ANHg+AIFUMBsab53b4Q+j1jdLhXfWFzjW7oBfwvF7rCfXHTlYoromB7pYUCbUEfvODiZvzRxjYmISkgufqOrsIjA/EihpAhQSJf36WXm/CFgHyzcnr5Fnvq4zkyVhPQ2/G1Y01rAAxALlsln/qPwssVS4nyM1WmNih4Ve9eMN5eRdK8yw0K5c4AtMsIF3OF4v4+bE5bHxy2iVaO1F8j4J+ESAQsInkEymtAnAwTISjctonRwJx/ApQOOGYPfOWdt/QpTYDUuFn3vIcKksD5kJqNqeatuehJhAxe49eTPZb2Ote6i3M402KovKd3KwOZruJZ346/Jn50lNQ8y8i04uCrMjgZIjQCFRcq+cFfabgHWwvHfcUvlqaVB9I5zhnmjc/BIRKDPSskuFD9Olwn+9z3q43CEjNUzCefwo066OJ87YQkYO0JEcwXJngS84nObxrJ9RwAabM4KjUarWlsutry40mgZOogwkQAIdR4BCouPYMuUSIAC/CHyAL6+JynW6GmUw1qgNms8zWCpHNMzOpiNAdAKqM3SFz/6VYdNwdhVm1Bsianj/cnlGh4X2q1CnR3XAxLBQNOoob2cG5GfFREhnvLzjraUye1mDCi29jhsMJEACHUKAQqJDsDLRUiGABgpdGdeNnSNLG3W4p65KCQdL3xtRTRBpxtXBckC4Qc48MLE4VxeDhm8GnC933qivPPDrjZ1ZPINds8CXFS9mr90bNbFyueyZuYYQhUQX/6Iw+x5NgEKiR79eVq4jCVgHy6/n1cm/P1xtHCxhRUdDhs2vYL60NWFnAqpK+dWeg2RY/zIzr0MXuCOkVcs6Xx69yyC57ZhhEg3pzJddNJLDsse6JuFYnTw5sUbenVZtrBJ4XwwkQAL+E6CQ8J8pUywxAheNmS1NzTqnQnPczGLptzUCzZ+Zw0Ebx0ppkPMPHW4IdwcRYV+1FRN/0IXDztqrd2IkhzMsFHH8ZmLzzbQ3wsuYILDeSUBG63onsJowkAAJdAwBComO4cpUezgBa4147suV8vqMiBl2iFU4MYeln00WGkVs+IcaDztLhW82pJfxTehOQgKvG2KiWRvsv56wqYzaPKRiwlngCzywdZaYsPlBPISbG+TzxQG5f9wS45RKqwTeFAMJ+EuAQsJfnkytRAjAL6K+KS6XPKVTMuu8ima6aq27342laYA10bimXCZNvi8V7vfrgrgJq6B47PQtZJvBzRIJVJjVQq268ptPtvLbfGCRgAPstS8slFW1UePPYicOy/Ysr5MACRRGgEKiMF6MTQKuNeCvby6S6at18SptqGA5R+OFht+vgPSwYcinWSp8696y04b+LxXuV3mRDgQWvvoH9gnLM2dvLgMr1RlTWkZy+JlXrrS8Vgk4wC6qL5cbXphnRtjQ8TIXOd4jgcIJUEgUzoxPlDABO9xzwaomuenVRRKM1hsR4aeAsHiRJhpmNHwBXZRqtLs4V0fkZnNt/96M5NB+nq2H9ZZHf7uJ1iEoAYzk0KRNndqfRV4pGKuE/oA1JxStk3+MWyGTF9abLg6KibwQMhIJ5EWAQiIvTIxEAg4BmMrRuF+pq0yuiVXoMuFRt3H0s3lvsUbAN6JS9htZLvtviaXCu3YCqnx/D+yaHIdtv67cffwInayql4R0ggnt9XB55ZtWW+NZ0eIMx41LY3OZwDEWgd0bbaXK50ggnQCFRDoTXiGBjAQcB0uR8bNq5MFP15jVJjtiuKc3c+N7oaNBWpYK91OueHPy/9iO5DjzwOFy4YH9jPNlSEUYRJJt5P3PNTlFmw8cL2GVeHlKo7z09So6XiZj4hkJtIsAhUS78PHhUiOAhn30k7PNDI6Yv9J0O/gMwTa0aIjjulT4LsOCckQnLRXuc1WckRzamt/6803kJ9uWSSTsjORAHeGwYPZ+Z5ohPWuBCASa1SoxRxojmJG0s3LPUCBeIoEeRIBCoge9TFal4whgvQb0/T/yyXL5YK4OK9RVJrHaJL54sfkdnCZOhYpZKnxEokEuzobPTBiuiuvBUzZXUaQLfAV1wiqtCoaKdgS71HeBPIwTqB7AMXbKypDc/Y5dh6MzSpBaIp6TQM8iQCHRs94na9NBBPDxulZXk7xy7Dz1i4gYSwSy6oimHU0bfAmwVPgW68bk2N0GmT59TEpVjMH58g9Iv8qQPH3WFjK0jy7wFdDRLqiPVrYjGGbiBK6YvDwYbZA/vrxIFq1uglGE/hKZYPEaCRRAoEj/NBVQQ0YlgXYSgDUCDc7Nr8yXObqqZDDW5I7U8Pt7Fo2q2dDA6Wqa5x48THqVBc102O2sRpc+Dn7wMRk5uEKeOG2kVIT1T49Zk8OxSqDOHRnwnpAHHC/hILsqUiFXPadzgGjB4EDLQAIk0HYCFBJtZ8cnS4AAfCBgCfhuaYPc9c4KNY23DPfsiOYHDZ6zVHiZDK9slJP2cpYKxyiIYg92ga8Dthog//7lBsbiEgqFtIHvPDEBvnCQhePl/8ZXy4TZNeb9csbLYv/tYvm7kgCFRFfSZ97dngCEBMIlT1VJTRTraXTMcE/kAamAzSx7rU6WZx00TPr3DksMc2/3kGBHcvxq7yFy5ah1E9Nod95IDvA1FiaVE5goC+twWEfMHoKY1SCBTidAIdHpyJlhMRFAo/7etDXy7Df1Ut5cr42ONvbaGmGDH4OfG9I0IzUkJOuG6+WM/YcaVMXqG5HtPZs6ajfH9cdsLCfsXKEjOdYx02hr9Ts8QJLp/FjGUTYcr5P358TkiQkrjCMtrRIdjp8Z9FACFBI99MWyWv4QwHoa5z5WpcMwK6QpptM9q5NgXH0XOmTTtKPaXx8r7ycn7zVYhvTDUuE9b5iitQDA0nLPrzaVPdYXY5kIJro4/HlzOVJRNQFBYUShzhh62TNzjSOt4y+BOwwkQAKFEAgXEplxSaDUCDw/caWsbQzIVv11PQ1dNqsjA77IdWCpVJRF5LxDNjFZOSMeOjLXjk0bQshttBMWF9TJunysoz4Sr12wtez+p8kya3mFhHRdjJjtT+qgoqE8YK1F0/wapWptP7nt1QVy3dEbOd0enWEa6aC6MVkS6AoCAf06cCU4Dp1/9LrXf2XwcF6+stqUa8TQgV1RPuZJAl1KoLZRe9JN34Jtfjq2OPg3CNN/Wbi4WjP8FbF/O0AIXT7ZRBBW4Zy1rEFmLmuUiXNrZPaKiHwwfbUsqI7rehxx83enYym3pA6TbCAUll7K++trtpdN1+vldl+1xOIRCZQmgYVLVpqKDx7YzziBB/QfNv5d46+T9983LRKl+fvBWudJoE9FKBGzsxr2zsonTwAp0Yxg0B8QDfiudwQD/qjgDJdayl+nImzOiia1NDTIV/PqZNqSepm0oE7m6YJnS9fGRMp6aXzw1dSi2oXTHDMjKpBMZwSUFPUIavdGbbyvXPb0HHnizK2M86X3j2RnlIV5kEAxE6CQKOa3x7KTQAcRMNZJbWXR0EI8YOhmi2hoEQvIHutYzFvZZETDNwtqZcqievlW91UqIhbqpE9YsEuC+FOjCcVVQGh8nfxbJ4aqc79qkAbyso070u2MgDyd1UFr5Mkvy+WsqWvkwK37G98U1JmBBEigdQIUEq0zYgwS6NEEbLeE49iJbomE+TJDO7qkuklFQ8QIBQiGSbos9wy1NCxYHZHamP45CaofCawS+pVvHA5UIISkQZdBdxCi4bZdqHrLUSkeurjUWQF5GeGiACAasNT56DFVMv6KHR3rSmcVhPmQQJEToJAo8hfI4pNAvgSMYNAfsAfAOoCfpgHVA3NsPSD1enV9TOavapSpKhYmJwTDlEW1ei0iK+q0CQ5XOFYGj2AISqPOGtlk0rbiBI11pmGVnSkYtAhZgy2HWR1Uh/d+vriv/OeDpXKaDr3FqJKeMBFY1srzBgn4RIBCwieQTIYEugsBb7cEyoT+/vRuCUgH0VUw47JoTURmLm1U60KtIxrUj6FqRaMsUF8GKavUoQ1qZUCXBNSBNq7wZUC3BEQILsEp2wqH1BEXtqE2mXXTHw4JR1oFdVGva55fIMfuOkgG6GRgYEl/iW764lisbkOAQqLbvAoWhAQKJ2AbcvskRnyg4UPvQmpYrIIBAmHywjrd6gX+DFU6YmLOinppjKtYgJXB9WPAAiMYHtmgVoYGVyhAGGBDt0RcRQWOkRX2xRpsHSCIMPx0Uf06csOL8+SO40aqVUIZWH/bYq0gy00CHUyAQqKDATN5EvCDgP3ixxcyguPHAGuDNnQpqgHDK9EFAQvD9CWNOmKiRr7ToZazdfREdaM+DCsDmn+1LBhfBt0FA01qZUC3BKwMjkBATuiWgHuDbWyd3PWCJ2S65rldNIemvvoD63D84/1GOXW/obLtiN5FU34WlAS6igCFRFeRZ74kUAABaAV8+XtNDQ066+bi6oiOkqhTwdAgE+fVahdFk4qGeh1eqRM7Ba0fA7oldNPPa7hBhGK1Ts6aaLw5LmbxSz12BYEeIy/kWXIBQkI9Q5uaK+TyZ+bIc+dsU3IIWGESKJQAhUShxBifBDqZACwMEAYzdAXS6Yt1aKV2S8AJcubSellWqy1feR9t/cpVLOgxVEHMjpxIWBxMeaEgynWhKp2C25YfysEoBnuBe/CIQVLFIjJ2clAe/GipnKQLjDGQAAlkJ0AhkZ0N75BAlxFYrsLhi7m18s18x9qAbomVKihqdJInWArgC7HhwArZbEhAZ97U4YvaNeF2STRj1QoVFgxtIgCOZmGxQFhen7SGQqJNFPlQKRHgFNml9LZZVxIgARIgARLIk0C+U2Rz9c88gTIaCZAACZAACZBAOgEKiXQmvEICJEACJEACJJAnAQqJPEExGgmQAAmQAAmQQDoBCol0JrxCAiRAAiRAAiSQJwEKiTxBMRoJkAAJkAAJkEA6AQqJdCa8QgIkQAIkQAIkkCcBCok8QTEaCZAACZAACZBAOgEKiXQmvEICJEACJEACJJAnAQqJPEExGgmQAAmQAAmQQDoBCol0JrxCAiRAAiRAAiSQJwEKiTxBMRoJkAAJkAAJkEA6AQqJdCa8QgIkQAIkQAIkkCcBCok8QTEaCZAACZAACZBAOgEKiXQmvEICJEACJEACJJAnAQqJPEExGgmQAAmQAAmQQDoBCol0JrxCAiRAAiRAAiSQJwEKiTxBMRoJkAAJkAAJkEA6AQqJdCa8QgIkQAIkQAIkkCcBCok8QTEaCZAACZAACZBAOgEKiXQmvEICJEACJEACJJAnAQqJPEExGgmQAAmQAAmQQDoBCol0JrxCAiRAAiRAAiSQJwEKiTxBMRoJkAAJkAAJkEA6AQqJdCa8QgIkQAIkQAIkkCcBCok8QTEaCZAACZAACZBAOgEKiXQmvEICJEACJEACJJAnAQqJPEExGgmQAAmQAAmQQDoBCol0JrxCAiRAAiRAAiSQJwEKiTxBMRoJkAAJkAAJkEA6AQqJdCa8QgIkQAIkQAIkkCcBCok8QTEaCZAACZAACZBAOgEKiXQmvEICJEACJEACJJAnAQqJPEExGgmQAAmQAAmQQDoBCol0JrxCAiRAAiRAAiSQJwEKiTxBMRoJkAAJkAAJkEA6AQqJdCa8QgIkQAIkQAIkkCcBCok8QTEaCZAACZAACZBAOgEKiXQmvEICJEACJEACJJAnAQqJPEExGgmQAAmQAAmQQDoBCol0JrxCAiRAAiRAAiSQJwEKiTxBMRoJkAAJkAAJkEA6AQqJdCa8QgIkQAIkQAIkkCcBCok8QTEaCZAACZAACZBAOgEKiXQmvEICJKAEotGo1Dc0kAUJkAAJ5CQQznmXN0mgmxD48qtv5Na/3u2WZuTGG8sfr77cPedB+wlEIlF56fU3ZPLUaTJ12nSZOXu2xGJx2XjDDWSrLbeQbXQ7ctShMqB///ZnxhRIgAR6DIFAswZbGxzixOzjzRLX8+Urq83tEUMH2mjck0CnE7juz7fKi6++7uYbCATkuUcflBHDh7nXeNB2AsuWL5eLr7pOvp0yNWciw4cOlVtvvFa22mLzjPHWVFcbIYKb4XBYdv/eLhnj8SIJkED3J7BwyUpTyMED+0lQ/+YGgrphr1ext4FdG5YE992WQGNjo7z9/gdJ5YPYfeXNt5Ku8aRtBL78+hs58bSzkkQERMDmm46U7bbZWtYd0GKBWLRkifz2nAvk9bffyZjZ9Jmz5LyLLzfbZdfemDEOL5IACfQsAuza6Fnvs0fW5r0PP5K6urq0ur36xlvy21/9Mu06L+RPoKmpSa64/o+yctVq89A6ffvKFRf9Xvbfe28pK2v58/DJhM/l9r/9XarmzhMIu+tvvl123XknGTSQlsr8aTMmCfRMArRI9Mz32qNq9YoKBht+dPgot4FDozZF+/IZ2k7gzXffl2XLV7gJ3Hf3nXLIAfu7jO2N7+++q/zzzttc6wTExAuvvGZvc08CJFDCBFo+OUoYAqvefQmsWr1GPv70M7eAx/3f0bK2pkbe++Ajc+3lN96Ubbba0r2f6QCm+0WLl2S6lfFaZa9ectD++7r3GhrQtTLOPT/0oAOkvKzMPfcejP/sc1mxcpW5BOfEkZts7N72phMMBuXwQw8291DHD8ePl0mTp8oO221rHBrdhzwHcDidMWuWLFm6TC0B68pmIzdRB8gtpV+/dTyxCjv8bnaV+wDKu+kmm7jnqQeDBw2UHx72A3n59TfNLZTDBsv4sy8m2ksCfwkbFxfhL7He4EHufe9BJBIx73nu/AXKb6UMXHeAbDBihOy95+5SUVHhjZp0vHDRYpn4zbfmGtK2Phlz582XcR9/IvM0vR+q+Nxh222SnsMJrFyTpk6XufPny4KFi6Rvnz7qczNU9vn+ngLLTD4BI1s+HP+pzJ4zV+rr643vyHZbby1Dh6xnHv/08y9k+Qqnn3nH7bc1dcqWbpNhMMGUGb8TG4wYLpuOxDveQsrLy7M9xusk0OUEKCS6/BWwALkIoC8+FouZKBvp6IGt9Y/qqIMPdIXE62+9K78/+0xBw5wtPPnsWHnznfey3U67PmS99ZKExNqatXLNn2524+3z/T2yCon/PfK4fPal05ief9YZSULCmw6ECITEP+//r+CZeDxu0odIwsgIb/jwk0/lr/fcK7OqqryXzXHvyko545ST5fifHpOTQdqDiQtowG2ozdB9ZO/ZPeqELTWMee55eePtd1MvJ3H72603pQkJ+Lo8/MQYeUi3VYnuFW8i/dbpK8dp3U496cSM9ft60iQ3j7322E2+t9OOcu5Fl8mEL750k4FjqFdI4Pfp2Rdekn/990FZvWaNG88eQLgcoe/movPPydmA43fzL//4t1p0lttHzR6/i2efeoqcfMJx8r9HH5cJnztlueriCzMKCTB45Mmn5KHHn3S7mLwJwqH44vPPVYGzh/cyj0mg2xCgkOg2r4IFyUTA260BAYGw3957Sa9eFYIv/JWrVgmsAHvtsbu5V0w/xn30ifznoUdzFvnxp5+VO/9+jys0UiPX6Vcw7kMo/euuO9K6JFLjp55vuflm7iVYAz74ZLzsq1/knRHwNX/lDX+St95rsfak5lu9tkbu/d9D8q1aa26+/mqBtShXuPvf9yWJiNS4aLRThUZqHHTbPPfSK7JKRcYt11+TUcA8OuZpwz31WZxDFKIcVgBnimOvIc7Vf7w5q/Mq4sHqcsGlV8gvf36sXHB2uoizaXFPAl1FgEKiq8gz31YJwCw9yTMccdTBB5ln0JjAGdCOHHhZfShyCYljfnSk7L7LzlnzW7h4sTzw6BPu/Z8dc5R73FEHETSiN95kGn4Io1122EEGDOgnfT0m9S+++lruuPufZjg2ygGz/aEH7i+77/o9WbpsmcBs/vATTwkcJr+ZPEXr8LicevKJBRUZX/HoGqmuXmueu/Dyq+WEn/3UbNm6ITJlcO7pp8rJvzjONOJ3/fPfbpSH7/2ne7zh+iPcYxzc98DDSSJiN31H6FLabZed5OtvJ5uROp9M+MzU/+NPJ8jf/nWffpmfk5SG9+TrSZNN9wi6RcAUVghYB7xDVZ9+/kVXaGD4Gnxu8KX/vZ12kmkzZmp53pfnX37ViAF0nz334svyf0f9yJuNTJ0+Q7x1HLjuunLwAfvJAfvsbcTDuI8+Fvie3PvAQ9Knd++kZ1NP/vvwY+7vsSnPYaNkby3PdttsJdOmz5R3P/hQXnrtDfMYxMv+++xlrC6p6fCcBLqSAIVEV9Jn3jkJwP/Bhi0220xGbryRPZVRhxzo/gF+b9yHgi9zmPkzhT204cWWKaARPlWHM9qw317fNw2iPe+oPb6M4/GY3HnTjbLnbrumZRPXeVxuvOUOV0QctN8+8ufr8HUcMHHRKGPUBBrL0Vdeaxqw/zz8iMB/Y5ONNkxLL9sFjLq4cvQf5NJrbzCNJ76m0dWARmtH9deAkyUEzPbbbuvmnSmt4cOGCjZYEGzo369fUiNur2MPHwaY/W344agfyLWXX2xPja/G0SoAIaQee+oZc/0p7T75kfpobLv1Vm4870FtbZ1suP768vc7bhbMd5EaUDcIEwhRzNgJ0XX6r09yo6Gu2BYsWuR2R0CcpAoJdDPZrihYxv511+1JzCFM4Jdx2rm/N34ibgYpB/MXLpT7H3rEvQprA0ScDajDgfre4ZsCoYvfmT/eeoc89t97s3at2We5J4HOJJC9Y7kzS8G8SCADgVffeNu9CuHgDbBAWIc4NArvqphoS7j5L3+TKdNnmEdHDBumjdklSROttCXNfJ/59S9/kVFE4Pmv1IFw3oIFJimU68arLs/YkO+rwueoIw838TAzJb5gCw2wAtz71ztkow3Wdx9FQwknxnv+84CZN+KIn/5cbrrjLiMA3EjtOECXlTX9o8Ecff7vMqZ2zum/dQUkGtIXX3O+zjNG1otXXzo6o4hAfFgnbrvxOnn35bHy6P3/ktNO/lXGZLw+KuhS8QZ0pX0+8Sv3EvxzMgk3CDyvSHEf8Bzg9xvdOwiwtnlFhCeanKPWno03dMQhup9gOWEgge5EgEKiO70NlsUl8I1+CeKLzYbDEt0a9hzOivhas+EVj/XCXmtt/4yauWHGRkB6f9Y+eDj3dVb4fgZLhM377XEtfgO777pLTqe/XXbcwT4mc+bOc48LOdhx++3k8f/ep1aPq2TfvfY0s1J6n8c8E+B13G9OM1YC2wB64xRy/M64D9zoRx52qBkx4V7wHGC0wk9+eIR7JZdg7NOnd5JTpftQygEExRabbZpRMEKsLFq0xH1i4eJF7jEOPlXHSWuNQDroGskW7KicbPe9k6yBea6w847bu7fb+o7dBHhAAj4TYNeGz0CZnD8E4PdgA77uYDZPDfiKs3MZ4A88hg3mO0ESpoK+TSdYsuEP555thtnZ887Yb5DiM+DNc8GClgZs7EuveG+lHXtHHlTpMMS2BkxAhTkksGFo5GdffiUfa1fAu9ro2yGMEBDoasDokmsuvaitWRkHQjwMvwCsm5IrbOoZQosRErC8eCfLss8OGzJEQqGQPW11v3jJUpk2c6Z8N6vKdGfgfMZ33wmGXtqguiIpeEdoYHhmrmGZ+J213ShJiSROFniEMt6x19KRGn/mrNnupaq5bX/HbiI8IAEfCVBI+AiTSflDAI2Vdyjh1BnJzm02F2saxzm+El97652s5mH7DPb4ur7k6utNg4TzI35wiPw0xaEO17syLF/RMkkUytGamLBlxZwIfoTe6iQIxz5sF513jjZyE+W2v/7DHYKKdU923mH7JGtBvvlCpHhXFfX6vmRKI1VoLF+5Imv3RabnU6/BSfeJZ8aqQ+ek1FutntsZQBFx441afHYyPQiRhCHLmboi4NODzQaIiFxCwsbDHv4lDCTQnQhQSHSnt8GyGAIfjZ+Q5KSGL1A4ALYW0O+erZ/ZPgvxcfl1N5pRD7iGCZguu7DF2dLG6+p9MOXLGhNV5RPQReN3gIMnHC4fuvcfcuYFowXdTggf6lBRb7dDvvliHQ9vwHDLXKEh5X5ZuO11hHPjPff/Lyk7+Npsoo68WOUUXR5wbrzi+j8lxbEnlZUtw09Xqb9EawGTVGUKIe0W8Qb4iQwenHmyLm88HA9XnxkGEuhOBJL/RXenkrEsJUugLf4OgIVheZhhMNcXLoYQ2i8/jPLIZ26C1BeBERXZgrebIVucfK6jMbPh1yccL79Tp0O/A/wBMAzVhtZECO7DsdMKia90iGZbAroD0HijewRlmKXvLJdQml01x80GfgkY3tmWMOO7WUki4oB995YzfnOyzhA6MsmRNde0696us1laLpQflodMAffQXZIpYNIrzKRZU1trbl8++gIdMbJbpqi8RgLdngCFRLd/RaVVQAzhe18narLhx0ccJpgHIlvAUvfe4ZsQIZhVMFN44513zQyC9h4Wp8rkcW/v2z2GMaLv3XalLNYVML0rYtp4mIvBO+W0vd6W/Ug1m78nH5lHJ02b1pYkWn0GU1z/+LhfuvHu/PONrU5G1aAjZGxItRTY6/ns4ffwVaJrYaY28LmC1z8A7wtioi1h4tfOVNp4FjOkYgRHpuCd+jv1/ha6IqoN6JqYPvO7rENcYVnDtNfZAgQv5v9AmDR1GoVENlC83u0JtO1fZLevFgtYrAQwIRDmdkCACfwCnY4ZX6vZtp10tMGJxx3rVhdD6vAlmBowvfQNumKlDT8/5idmyJ09z7XHF7R3DYpsQyzho5Gcd3o5cuXjvXeITjxlA9bgwORc2cLHOlkTZn/EiIZsX8CZnh02dEjSKBVMvpQrwBLz2pstQ3I33mD9XNHN2hNWfKVGxHwXNsD/I1v9sKDY408780gg/qEHtjxnn8937x0F5B3pkvo85prIFvB7iCnUbcCslF5/D3sd3XGYkCpX8L7jt3V2T8zUmi088cxzpnsPs7h65+rIFp/XSaAzCVBIdCZt5tUqAe+U2HupqTefBalGHXKwm+4itRZ4vzxxA+bji6681v2Dv902W+tUw2e6z+RzsO3WW7rRHn58jJkB0V6AoyfW8/COArH32rrHF/P2Wk4EfPn+7sJL0tZ0wD1Mn3ztTbfIv//3oFx01bUFzyNx9I9+iGRMwEyOWFMkU0OF0QrnjL5EMNrFhh8fcbg9dPebjdzYNfXjaxyzc2YKGBpp3y0a4qs131RfCTTG1998q1sejMXwFI4AAA3CSURBVID40RHZh1tmysd7Dc6hNmCRsUxDWDHV+NjEkGAb17tHN8avjv+ZewkCFb9b73/4sXlPSBPzkpx+3u+TZmV1H/AcgAG6NxBg2bjkmuszlukDXXzs9r/9w8ymed7Fl+sCdIs9qfCQBLqeALs2uv4dsAQJApj22fov4FLqJFTZQGF1RMxoaCdwwoyYu+zUMrfCdTfdqis8tnzRowvizN+PzpacuX7tZRdrmi1TOmP6Y8w5AYsDGshLr7nBTOCEr9Mp06cLumQ2V7P3gP793UW7cmaQx81rtAy/PPVMY6GBQPrFKWeo0+POZjrniopy0/hgTQjbAIPBsT/5cR4pt0Q56Rc/N7M9oiFDwGqdaBS32HxTMywT1iH4FsBPwWumB/OjjjysJaHEEaaL3nzTTc0wSlzClNt77PY9CWoDfNUlo91JxMAJC1FhrQ2EbydPkR8cfayZ6hwzdsIPA6t3gqsN555xWrtGa+yqU3CjWwTCD/40p5x9nsBPYsftt1eLyHwzAResSr1UsGQSGbYcWIH2g4/HmzVecA1WAmwYkhrQ/ywnWF2wqmg2nwv4W1x47tly3Z9vNUl/pKuIHnvSKcaxdacdttMhuPXyxcSvk0QrJsvyTvlty8Q9CXQlAQqJrqTPvJMIvKpmc9s1AGe0/bXxzjeMOvhAd7rht95931m5MTGCAWtSeAMEhxUd3uveY68vAK7vt/f35bwzT0taYwHixAoU+Ezc8acb5M5/3ONJJrMTnidCzkP4A/xF/RYwfTXED5blxhoO2FIDZj688arL0iaSSo2Xeg7/j//8/S750+1/cZf8hgUHS5ZjyxRgKbld65ptee9f//I4tWzcYhpjWBtg6UDAVNNeh8LDDjlI52xY7S5KVl/fIDDxY/MGWAGwwml710DBZGNouPF1DzEBy4Gd1dTmB4fSqy76g1ymI3uyBZQHU5vf8pe/GuuF/Z2FBcWGA/fdx0w9fvaFF9tLGfeY0Gr1mmpdR8SZdhvCA1umbiZMvX3emadnTIcXSaArCVBIdCV95p1EAF/DNqDhzrZ2ho3j3cN6YdctwGiAD/WLEVM/+xlOPO5n+tVZpmt8vCuT1TnOfrViaCRERqZJs9qbP9LGwlcPPvakwJHU+4WOtGEROeIHBwumY841OVKuckAQXKdTg8NvACIFkzJ550vAs2g8t9M1LjDc86gjj0ga5ZCaNiYKW2/wYLn1rruN8ykabYRpM75LEhK4huXPt9lqS3lQ15KACR/OszYgT6x98avjf26+0u319uzhG7P+8OFy61/vNg22Ny0IJAwFtt0N3nupx7A+XKGC4yRdqAy/t3PUogEfhy02G6ldUtsY4Zn6TLZz+PjssN02gi6z93XBL8sL8WFBgaXp1ycer+uMtL1bJ1vevE4CfhAIqJp2/+XiECdmr45V+Ee9fGW1yWfE0JbhaH5kzDRIoJgJ4EsbfdVD1xsimJq5MwK6GRaoT8SSpUuN+X2zkZu4XQV+549ZQtGlgZEZg7S7Yn2dxRHdFoUGlBlWGwz3HDqkxUkxUzrVa9eaxh15rztggMkTXSAdFWDhmTJthhmRA9+OttSvtbL9TLsqqhLTlt9w5aVy+KGH5HwEIhh+L8t0QrL1Bg0yQ5nbKhBzZsSbJJAHgYVLVppYgwf2M92TAZ1TBgIftlbsbaCQsCS4JwESIIECCKBbBL4i2QJE1H6H/9i1MPxbF0bLNVokWzq8TgJdRSBfIcFRG131hpgvCZBAURLAcNXjfn2anHT62XLfAw9nrcPd/77fFREYcQJnXAYS6IkE6CPRE98q60QCJNBhBFasXOWuOfKv/z4gX0+aJBhNgRkyy8vLdC2MBfL08y/oFOKfumX4qY6mscveuxd5QAI9hAC7NnrIi2Q1SIAEOocAJtm64Zbb5aXX3mg1QzhLnnLiCXKaOsNizRIGEigmAvl2bVBIFNNbZVlJgAS6DQHM4fHYmKfVOjEnrUxwRMM8JBfpXBkYecJAAsVIgEKiGN8ay0wCJFB0BDCZF0ZaLNXZPzHCAr4QWEukkOHLRVdpFrgkCOQrJOgjURK/DqwkCZBARxHYcvPNBBsDCZQqAY7aKNU3z3qTAAmQAAmQgA8EKCR8gMgkSIAESIAESKBUCVBIlOqbZ71JgARIgARIwAcCFBI+QGQSJEACJEACJFCqBCgkSvXNs94kQAIkQAIk4AMBCgkfIDIJEiABEiABEihVAhQSpfrmWW8SIAESIAES8IEAhYQPEJkECZAACZAACZQqAQqJUn3zrDcJkAAJkAAJ+ECAQsIHiEyCBEiABEiABEqVAIVEqb551psESIAESIAEfCBAIeEDRCZBAiRAAiRAAqVKgEKiVN88600CJEACJEACPhCgkPABIpMgARIgARIggVIlQCFRqm+e9SYBEiABEiABHwhQSPgAkUmQAAmQAAmQQKkSoJAo1TfPepMACZAACZCADwQoJHyAyCRIgARIgARIoFQJUEiU6ptnvUmABEiABEjABwIUEj5AZBIkQAIkQAIkUKoEKCRK9c2z3iRAAiRAAiTgAwEKCR8gMgkSIAESIAESKFUCFBKl+uZZbxIgARIgARLwgQCFhA8QmQQJkAAJkAAJlCoBColSffOsNwmQAAmQAAn4QIBCwgeITIIESIAESIAESpUAhUSpvnnWmwRIgARIgAR8IEAh4QNEJkECJEACJEACpUqAQqJU3zzrTQIkQAIkQAI+EKCQ8AEikyABEiABEiCBUiVAIVGqb571JgESIAESIAEfCFBI+ACRSZAACZAACZBAqRKgkCjVN896kwAJkAAJkIAPBCgkfIDIJEiABEiABEigVAlQSJTqm2e9SYAESIAESMAHAhQSPkBkEiRAAiRAAiRQqgQoJEr1zbPeJEACJEACJOADAQoJHyAyCRIgARIgARIoVQIUEqX65llvEiABEiABEvCBAIWEDxCZBAmQAAmQAAmUKgEKiVJ986w3CZAACZAACfhAgELCB4hMggRIgARIgARKlQCFRKm+edabBEiABEiABHwgQCHhA0QmQQIkQAIkQAKlSoBColTfPOtNAiRAAiRAAj4QoJDwASKTIAESIAESIIFSJUAhUapvnvUmARIgARIgAR8IUEj4AJFJkAAJkAAJkECpEqCQKNU3z3qTAAmQAAmQgA8EKCR8gMgkSIAESIAESKBUCVBIlOqbZ71JgARIgARIwAcCFBI+QGQSJEACJEACJFCqBCgkSvXNs94kQAIkQAIk4AMBCgkfIDIJEiABEiABEihVAhQSpfrmWW8SIAESIAES8IEAhYQPEJkECZAACZAACZQqgVaFRDAYMGzi8XipMmK9SYAESIAESKCkCNg232qAXJXPKSQgIUJBJ0o0RiGRCyTvkQAJkAAJkEBPIWDbfGgAx5yQvWZpQgIPmIcST4ZDIfN0U1M0eyq8QwIkQAIkQAIk0GMI2DbfagAIA1cfpNQyTUik3JeyMkdINDZFUm/xnARIgARIgARIoAcSsG2+1QC5qpgiJBJmCM8TZeEWIRGNxjx3eEgCJEACJEACJNDTCKCtd4VEQgMk1zFZK6QIiZaoAWPH0J+BgFRWlJsbtXUNLRF4RAIkQAIkQAIk0OMI2LYebT80gP5QRZAsHryVziIkvA8EpFdFmXmmtr5RmiL0lfAC5DEJkAAJkAAJ9BQCaOPR1iM4bX+yHshUz2Qh4Y2vsc2p/giq12bvyl7m+eq1dZnS4TUSIAESIAESIIEiJ2DbeLT5aPtN50RqnVK0QpKQcO/pAawZbgJ63Ks8LPCXgFpZtaYmNVmekwAJkAAJkAAJFDEBtO1o49HWo833agCrCVA9Vysk6pokJJxrtick0Sdi+0Z038colIDUNzRRTCQAckcCJEACJEACxU4AIgJtOyagQlvv+kVYDaDywREQqTJCozZr8AJwzpoFe9yyWxzH8WaJ6cRUa+vqJa7H5WVh6bdOb7P3psFjEiABEiABEiCB7k8AFgh0Z2APEbFO70oJhXQSKj0OQkQkbagPriXXK01I4LbVFo6IEDEiIiEkcIypM+vUGSOSGA7ap7JC+vTuJeGMw0SSM+QZCZAACZAACZBA1xLAEE+MzrCOlejO6K1tOfwijIBQIQER4YgJGCgS9ohUFaHVyCIkUMGEVcLsHWsEhIUaIlwrRVMkpoKiZUhoRXmZYCvXvpWwKhrjqNG1rJg7CZAACZAACZQ8ARgAMO01ZqzEHBF2ngiAgWNluU4+aa0PqiGc44SYQKeGox/sPhlnRiGBKC1WiRbh4AgJ292RuK7KAiaR+sam5JR5RgIkQAIkQAIk0G0JYJ4IuCigG8MREY6AyNyl0WKVSK1QDiGBqCoazC5hnUD3hrFKJJ87iTr+E9EoVE9MYqp+4EfBQAIkQAIkQAIk0LUE4P+ABbiwdkY4HDR+ECoNTKGsJQJWh2QRobf1YiJWwiqRXo+sQgJRVTPgZ9IeQqJlS1glTNwW0YD7DCRAAiRAAiRAAt2LgPV1QKmMgLB7250B4WA2EyMhHjJ3aSAGgg4UzR6gTpqbkQDEg7O3CsY8BZkCzaCbPXQu4IyBBEiABEiABEigOxFAu44W29k5AiFZUDjXTBwbt5UmPadFwlbeWhi8FgqVFo6lwlgoIB9UTTj/62PeY5sK9yRAAiRAAiRAAl1BIKEJNGsrIpwjIywSFgjccYVGQjx4LRjZyv3/2P8PKFFFjLMAAAAASUVORK5CYII=;" vertex="1" parent="1">
          <mxGeometry x="530" y="640.61" width="113.51" height="69.39" as="geometry" />
        </mxCell>
      </root>
    </mxGraphModel>
  </diagram>
</mxfile>
